<mxfile host="65bd71144e">
    <diagram id="9mSdYx-X75cKp0dAhxNR" name="UserFlow">
        <mxGraphModel dx="1175" dy="813" grid="1" gridSize="10" guides="1" tooltips="1" connect="1" arrows="1" fold="1" page="1" pageScale="1" pageWidth="850" pageHeight="1100" math="0" shadow="0">
            <root>
                <mxCell id="0"/>
                <mxCell id="1" parent="0"/>
                <mxCell id="5" value="" style="swimlane;startSize=0;" parent="1" vertex="1">
                    <mxGeometry x="40" y="10" width="610" height="660" as="geometry"/>
                </mxCell>
                <mxCell id="6" value="Login / signup" style="text;html=1;align=center;verticalAlign=middle;resizable=0;points=[];autosize=1;strokeColor=none;fillColor=none;" parent="5" vertex="1">
                    <mxGeometry x="15" width="100" height="30" as="geometry"/>
                </mxCell>
                <mxCell id="8" style="edgeStyle=none;html=1;entryX=0.5;entryY=0;entryDx=0;entryDy=0;rounded=0;" parent="5" source="2" target="7" edge="1">
                    <mxGeometry relative="1" as="geometry"/>
                </mxCell>
                <mxCell id="2" value="" style="strokeWidth=2;html=1;shape=mxgraph.flowchart.start_2;whiteSpace=wrap;fillColor=#008a00;fontColor=#ffffff;strokeColor=#005700;" parent="5" vertex="1">
                    <mxGeometry x="250" y="20" width="30" height="30" as="geometry"/>
                </mxCell>
                <mxCell id="10" style="edgeStyle=none;html=1;rounded=0;" parent="5" source="7" target="9" edge="1">
                    <mxGeometry relative="1" as="geometry"/>
                </mxCell>
                <mxCell id="7" value="Login or Signup" style="rounded=1;whiteSpace=wrap;html=1;absoluteArcSize=1;arcSize=14;strokeWidth=2;" parent="5" vertex="1">
                    <mxGeometry x="212.5" y="80" width="105" height="50" as="geometry"/>
                </mxCell>
                <mxCell id="15" style="edgeStyle=none;html=1;entryX=0.5;entryY=0;entryDx=0;entryDy=0;entryPerimeter=0;rounded=0;" parent="5" source="9" target="18" edge="1">
                    <mxGeometry relative="1" as="geometry">
                        <Array as="points">
                            <mxPoint x="120" y="225"/>
                        </Array>
                    </mxGeometry>
                </mxCell>
                <mxCell id="22" value="YES" style="edgeLabel;html=1;align=center;verticalAlign=middle;resizable=0;points=[];" parent="15" vertex="1" connectable="0">
                    <mxGeometry x="-0.1092" y="2" relative="1" as="geometry">
                        <mxPoint as="offset"/>
                    </mxGeometry>
                </mxCell>
                <mxCell id="17" style="edgeStyle=none;html=1;exitX=1;exitY=0.5;exitDx=0;exitDy=0;exitPerimeter=0;entryX=0.5;entryY=0;entryDx=0;entryDy=0;rounded=0;entryPerimeter=0;" parent="5" source="9" target="24" edge="1">
                    <mxGeometry relative="1" as="geometry">
                        <Array as="points">
                            <mxPoint x="411" y="225"/>
                            <mxPoint x="465" y="225"/>
                        </Array>
                    </mxGeometry>
                </mxCell>
                <mxCell id="23" value="NO" style="edgeLabel;html=1;align=center;verticalAlign=middle;resizable=0;points=[];" parent="17" vertex="1" connectable="0">
                    <mxGeometry x="-0.1333" relative="1" as="geometry">
                        <mxPoint as="offset"/>
                    </mxGeometry>
                </mxCell>
                <mxCell id="9" value="Already signed up?" style="strokeWidth=2;html=1;shape=mxgraph.flowchart.decision;whiteSpace=wrap;" parent="5" vertex="1">
                    <mxGeometry x="194" y="180" width="142" height="90" as="geometry"/>
                </mxCell>
                <mxCell id="16" style="edgeStyle=none;html=1;exitX=0.5;exitY=1;exitDx=0;exitDy=0;entryX=0.5;entryY=0;entryDx=0;entryDy=0;" parent="5" source="11" target="12" edge="1">
                    <mxGeometry relative="1" as="geometry"/>
                </mxCell>
                <mxCell id="11" value="Enter Email" style="rounded=1;whiteSpace=wrap;html=1;absoluteArcSize=1;arcSize=14;strokeWidth=2;" parent="5" vertex="1">
                    <mxGeometry x="10" y="340" width="105" height="50" as="geometry"/>
                </mxCell>
                <mxCell id="32" value="" style="edgeStyle=orthogonalEdgeStyle;rounded=0;html=1;exitX=0.5;exitY=1;exitDx=0;exitDy=0;entryX=0.25;entryY=0;entryDx=0;entryDy=0;" parent="5" source="12" target="31" edge="1">
                    <mxGeometry relative="1" as="geometry">
                        <Array as="points">
                            <mxPoint x="63" y="520"/>
                            <mxPoint x="257" y="520"/>
                        </Array>
                    </mxGeometry>
                </mxCell>
                <mxCell id="12" value="Enter Password" style="rounded=1;whiteSpace=wrap;html=1;absoluteArcSize=1;arcSize=14;strokeWidth=2;" parent="5" vertex="1">
                    <mxGeometry x="10" y="430" width="105" height="50" as="geometry"/>
                </mxCell>
                <mxCell id="36" style="edgeStyle=orthogonalEdgeStyle;rounded=0;html=1;exitX=0.5;exitY=1;exitDx=0;exitDy=0;entryX=0.75;entryY=0;entryDx=0;entryDy=0;" parent="5" source="13" target="31" edge="1">
                    <mxGeometry relative="1" as="geometry"/>
                </mxCell>
                <mxCell id="13" value="Fill out signup form" style="rounded=1;whiteSpace=wrap;html=1;absoluteArcSize=1;arcSize=14;strokeWidth=2;" parent="5" vertex="1">
                    <mxGeometry x="336" y="340" width="105" height="50" as="geometry"/>
                </mxCell>
                <mxCell id="19" style="edgeStyle=none;html=1;exitX=0;exitY=0.5;exitDx=0;exitDy=0;exitPerimeter=0;entryX=0.5;entryY=0;entryDx=0;entryDy=0;rounded=0;" parent="5" source="18" target="11" edge="1">
                    <mxGeometry relative="1" as="geometry">
                        <Array as="points">
                            <mxPoint x="63" y="285"/>
                        </Array>
                    </mxGeometry>
                </mxCell>
                <mxCell id="21" style="edgeStyle=none;html=1;entryX=0.5;entryY=0;entryDx=0;entryDy=0;rounded=0;" parent="5" source="18" target="20" edge="1">
                    <mxGeometry relative="1" as="geometry">
                        <Array as="points">
                            <mxPoint x="188" y="285"/>
                        </Array>
                    </mxGeometry>
                </mxCell>
                <mxCell id="18" value="" style="verticalLabelPosition=bottom;verticalAlign=top;html=1;shape=mxgraph.flowchart.summing_function;" parent="5" vertex="1">
                    <mxGeometry x="105" y="270" width="30" height="30" as="geometry"/>
                </mxCell>
                <mxCell id="35" style="edgeStyle=orthogonalEdgeStyle;rounded=0;html=1;exitX=0.5;exitY=1;exitDx=0;exitDy=0;entryX=0.25;entryY=0;entryDx=0;entryDy=0;" parent="5" source="20" target="31" edge="1">
                    <mxGeometry relative="1" as="geometry"/>
                </mxCell>
                <mxCell id="20" value="Aggregator&amp;nbsp;&lt;br&gt;(Google)" style="rounded=1;whiteSpace=wrap;html=1;absoluteArcSize=1;arcSize=14;strokeWidth=2;" parent="5" vertex="1">
                    <mxGeometry x="135" y="340" width="105" height="50" as="geometry"/>
                </mxCell>
                <mxCell id="29" style="edgeStyle=orthogonalEdgeStyle;rounded=0;html=1;exitX=0;exitY=0.5;exitDx=0;exitDy=0;exitPerimeter=0;entryX=0.5;entryY=0;entryDx=0;entryDy=0;" parent="5" source="24" target="13" edge="1">
                    <mxGeometry relative="1" as="geometry"/>
                </mxCell>
                <mxCell id="30" style="edgeStyle=orthogonalEdgeStyle;rounded=0;html=1;exitX=1;exitY=0.5;exitDx=0;exitDy=0;exitPerimeter=0;" parent="5" source="24" target="25" edge="1">
                    <mxGeometry relative="1" as="geometry"/>
                </mxCell>
                <mxCell id="24" value="" style="verticalLabelPosition=bottom;verticalAlign=top;html=1;shape=mxgraph.flowchart.summing_function;" parent="5" vertex="1">
                    <mxGeometry x="450" y="270" width="30" height="30" as="geometry"/>
                </mxCell>
                <mxCell id="33" style="edgeStyle=orthogonalEdgeStyle;rounded=0;html=1;exitX=0.5;exitY=1;exitDx=0;exitDy=0;entryX=0.75;entryY=0;entryDx=0;entryDy=0;" parent="5" source="25" target="31" edge="1">
                    <mxGeometry relative="1" as="geometry">
                        <Array as="points">
                            <mxPoint x="543" y="520"/>
                            <mxPoint x="310" y="520"/>
                        </Array>
                    </mxGeometry>
                </mxCell>
                <mxCell id="25" value="Fill out signup form" style="rounded=1;whiteSpace=wrap;html=1;absoluteArcSize=1;arcSize=14;strokeWidth=2;" parent="5" vertex="1">
                    <mxGeometry x="490" y="340" width="105" height="50" as="geometry"/>
                </mxCell>
                <mxCell id="31" value="Fill out signup form" style="rounded=1;whiteSpace=wrap;html=1;absoluteArcSize=1;arcSize=14;strokeWidth=2;" parent="5" vertex="1">
                    <mxGeometry x="231" y="570" width="105" height="50" as="geometry"/>
                </mxCell>
            </root>
        </mxGraphModel>
    </diagram>
    <diagram id="Q6U-OAKbrq21nkiU8v2w" name="SequenceLogin">
        <mxGraphModel dx="1575" dy="813" grid="1" gridSize="10" guides="1" tooltips="1" connect="1" arrows="1" fold="1" page="0" pageScale="1" pageWidth="850" pageHeight="1100" math="0" shadow="0">
            <root>
                <mxCell id="0"/>
                <mxCell id="1" parent="0"/>
                <mxCell id="RXpoS-Nx3WBIdKvjISsR-2" value="User" style="shape=umlActor;verticalLabelPosition=bottom;verticalAlign=top;html=1;" parent="1" vertex="1">
                    <mxGeometry x="-20" y="10" width="30" height="60" as="geometry"/>
                </mxCell>
                <mxCell id="RXpoS-Nx3WBIdKvjISsR-3" value="" style="html=1;points=[];perimeter=orthogonalPerimeter;fillColor=#d80073;fontColor=#ffffff;strokeColor=#A50040;" parent="1" vertex="1">
                    <mxGeometry x="-10" y="100" width="10" height="420" as="geometry"/>
                </mxCell>
                <mxCell id="RXpoS-Nx3WBIdKvjISsR-5" value="" style="shape=image;verticalLabelPosition=bottom;labelBackgroundColor=default;verticalAlign=top;aspect=fixed;imageAspect=0;image=data:image/png,iVBORw0KGgoAAAANSUhEUgAAAhsAAAHgCAYAAAAMmq/6AAAABGdBTUEAALGPC/xhBQAAACBjSFJNAAB6JgAAgIQAAPoAAACA6AAAdTAAAOpgAAA6mAAAF3CculE8AAAABmJLR0QA/wD/AP+gvaeTAAAAB3RJTUUH6AcSARQmg5JI1AAAgABJREFUeNrsnXl4XVXV/7/rDDdpm5YWBaHQlra5Nx1AEIoioIKgiMxDBMG296Z9oy+zOICIGlQUHJlEqW3ubQuIFkEEEUUBGRShgAxpm3vTIS0FAYHSpm1yz/D9/ZHoD3wZ2iT73HNu1ud5+jzQJmfvs/baa3/3PnuvLVCUQaRpBUfS9g8E8AEh9iSwF4B6AM4AHx0AeF4EnSQ7BfIPWFjaQ+exG9KyUS2vVDPNK7mD5/n7wcIMgPuIyHgSewDYBYA9wMf7AEognxaRZyh4RALnr61TZJNaXhksRE2gDIRG0h7e7h9gWziGgsNAvG8Qgt/2QABFgkstwVKKPDJhnfNIy6Hia+soSaTlXjprx/oH0OL+IGaIyAwS6YjjtQ/BPxjiT5aF346vd/7eIhJq6ygqNpRIyXV4ByKU2QBPALBTzKq3QYC7Q+FdKc/9/bxp8ry2mBJnmlZwLGzvSFI+AeBjAHaIWRVfBORWES5sTbt/0xZTVGwoxsiu5mjx/GYRzCGRSUi1CeAfENwVBvjdwgbnrxChtqZSWa+kNBX9g0LgKBF8AsDeCYrH7QDmu7bz83mT5TVtTEXFhjIozFrJ8Vbgf16AOQBGJjzId0LkehvhDfMzNcu1dZUoyZV6pgHWZxDyNIhMSPjrbBTBfIpzRb5e1mnrKio2lH4xp4070vW/TOBcALVV+IrLKFiU8pxF+qlFMUXTCo4NLa/REmkkcVAVvmIZkILt2F+fP0le0BZXVGwo20TzUrr+KP88Al9F/L4dmyAQ4m6K/GRC2r5TN8IpA6WFtNZ2BEeTPAPA4Yh203SleE2AS52NzhXzZoinXqCo2FDektkrvIMsCz8DsOcQ7RKrKJxnl52fL5gur6hHKNvD6SWOqqF3KiGfBzBliI4qT0PwuXy9+1f1CEXFhvIGzi6xpov+5QDOUb8AAGyCyMLA969eNLW2qOZQ3o5se88UC/bZFM4CUKcWQSiCK0bAuejqtPSoORQdVJTeTWu0bkTvjnjljRDA78MQ31k4xX1IzaG8UWR4HxLBVwF8XOPpm/IEGZ5WaKhZoaZQsaEMYZpK/qdI5gEMV2u8Y2f5c0hcUmhwH1BrDHWB7n0EIb4BwaFqjXdks0Bmt2acX6spVGwoQ26+Tsl2+F8W4jsALDXIdnQawUMgWloz7p/UGkNMnLd7B1PwDfRu+lS2I+II8L3xaeci3YCtYkMZIjS2MVWX8haBcopaY0D8RSxc0lrv3qumqHKRUfQOJ/B1AB9SawxIc9zobnSzelpFxYZS5ZxdYs1m+DeROF6tMWj8ScgvtjaknlRTVBdziz1TA1g/APBJtcYgyQ3gd5uHOY1LxslWtYaKDaUKaX6Ow70u/04AH1FrDDqBiLSGjv31wkT5p5oj4X1lGXct28G3RJiDfmY0wX1unXPUvLGyRU2hYkOpIno/nfi/AXGkWsMomwW4ptZzvn3tdOlScyRPkJc3+2cLcRGAUWoRo9xdJ84xejRWxYZSLUKDtOtK/hIAJ6g1ooLrINZF+Xr7Br34Lf60kNbaYvAZCi8FsLtaJDJu7ko7py4RCdQUKjaUhJMreleg934TJXoeFvJzup8jvmSL5X0E8jMAH1BrVGQU+mE+7X5RDaFiQ0m00CjnAGlVS1QUH8C1EjoXt06RTWqOeND8HIf7Xf7XCXwBgKMWqeRAxM+2ZlLz1BIqNpQE0pcT4B4ArlojDnAtxDonn3ZuU1tUlmzRP1HAK6GfTOJC2SI/tKAh9YiaQsWGkiBO6+SYmm7vCYhMUGvEjjss3zlrwTTpVFNEy6x27maJf6UAJ6k1YjccrZTQfp+u/lUneqSrKifQlJoef5EKjdhydOj4z2TbvfMbSVvNYZ5G0m4qel+yxS+q0Iht4JpMK/i+2qFKpaSaoPrIFcufRe+GtzjjC7CJkFdfF2x2EMBi7z0tNUOiAwoeEgmyC+prO9RzzdC0oruBll0AcMAQeeUeAbYQICAbXte/RqP3OG+c96cQkGPzGecO9VwVG0qchUYHxyH0n0G8cgS0k/KgWOFjgCwLQqdjawb/fMvjbqQ0L8cunuONh1jjGHK8iOwJcH8AUwFU22rAFpAX5DPuT/SY7ODRQlprO7xzSPkOgGFV9no+BMtBeZRkm1iyFgzXub67dt5U/POt/KiRtHfowK4B/MkAp4HWDBEeTCITo3d7AeLslU/LS+rFKjaUuIqNkndnHBJ3EXgE4PUIgtsLU4etGaznznySI9xa/32wOIOhHALBYQDqqqLxiHsZ+k2Daa8hu5pR7J4Uws4L8OEqeaVNAP5E8C8MZWnNKOeJwcy+OXfF1om+ZR8rkNMB7B+DvnBbvsE9Xj1ZxYYSQ7Il/xghf1vBKngAbwxC/mjRlJqnoiiwsY2p4Y7/IUvwCQBHApie9EGF5BcKGXe+rnL0Z5CiNJW8zxLy/SoQoc8Q+L2EuKsrcB5cMl3KkQi19vLetHA+KJ9GBU+ykXJUocG5U51axYYSI1rupdO5m/8Uej8zVIKbLSv4SqX3HswudU+2YJ8uwOkxWxrevo5J3OUETtO8afK8eve2Maudu9ni5wF8LMGv0S7ADUBwQ2umdlVFJy8ru9MS2N8BcHKlxFZX2tlHs4uq2FBiROU2hXKNiHy2Ne3+MYY2+YDAOp3gqQB2SmCzviSU2a0Nzu/Vw9+prf2jAeYBvDuB1X8BwE0kbyg0pB6NnW1L3hEIeV1FTreR/5NvSM1XD1exocSAM9pYt9XxSxDsErHzLHFs53/mTZbX4myflnvprNk9OEHIswF8KGHNSwh+1FV2LopqGT1JnF1iTRf9ywGck8B49hdCrtpjvf3blkPFj3NFs6s5Gp4/P+pjwwSeD7Y66cV7y2b1dhUbSqVnHu3eJRB8PdIYQHw1n3EuS9q+gjml8vsCWudI72pHbYJ66tIQwakL07Ur1eN7mbW8O2Pb9i8A7JuganeTcoOF8OrE3ZdDSlPJv5jAJZGOHYJv5NPuN9XjVWwolZ1x7CKe3wFgRERFBgLObc2kCokWaCXuBPrNfTPinRNS7Y2E/G8h49w45P2+5M8U8lokZxPoCyCudOH8fF6D/CvJtm8qleeQch2iO4LeZTtO/fxJ8oJGfBUbSqUGzaL3bQBfjWpuI8L/aU2nFlSL/WY+yRH2MG8uIBcIsGsiOi25uNZ3z7h2unQNNX9vWsGREO8nFJmZkCq/RMEPUyOcqwfzqGpMxF4BEWWhFuKS1ga3RSO+ig2lEh1+NWvF89cios2PIvx8azp1RTXasvk5Di9v8j8nwJei3vvST5ZJGJzYOqW2fcgI61LPNNC6BUBD3OtK4HmAl28e5s5bMk62VqXwa/e+QMEPIiruhTpxJlydlh6N/MlE70ZJslL0vE8jslMWcl21Cg0AmDdWthQa3B91DXcmifDzAF6MeZWn0bIfaWr3TxgaQsM/GbQejr3QIP4J8Fy4zqRCJnVltQoNAGhtcH9ISlSrnO/ZHAanaNRXsaFURm6cE00xWFon9rlDwaJLxsnW1nTqCn+rM0mISwDEebAYReGvc0XvypZ76VRje/RdoHYZyF8BGBnjqm4V4PKy5TTkM6mrChOleyj0l5GWfSYET0ei44RDIgZV7WilJkgmc4reh0PgLxEUtTmUYO+hegpizjJOCB3vu4CcGvP+crdL57Skbz58Pc3tfLcn/o2Id5IuCnCzFfoXzJ8ybPVQ7CPZYnkfgfwdQMp0WWGIgxdOcR/SESB56MpGQgmB8yKJpOBXhvJxywXTpDOfSZ0mId9P4P4YV/VjnvhP5IrlD1SD3XOl8r6eeI/GXGj8HRYObs24nxqqQgMACpnUPxjR0XtLeA6URKIrG8md8T0P81dFPzEh7cxoEQnV6n2zuHb/VAh/FOOTK90UnllIp1oTKzTay3Mhcg2AmphW8TkR+Xxr2vmV9oheWkirs+Q/BmAfw0V5lufssmC6vKJWTxa6spFAfPFOjEBoQIAvq9D4r1lcg3NTynamArgKQBzvbKgVyoJc0b+ueSndJNn2P/szRH4eU6ERAjKvLM5UFRr/JTZEQrFwfgRFuUHKO14tnjx0ZSOJM7+idzeAw02WQeB3hYx7tFr7renNRio/E+D9cawfgT/CdU4pTJQNcbdl0wqODC3/FwIcFdMqPmGRn1vQkHpEPf9t2rHd+z17b2A2N2gRd7U2uEeqtZOFrmwkjOZ2vhvAIYaLCWwrvFCt/fYsSKee2CPtfFDAzwLYGMOZxMfF8x9pWtEd6+Ois0vdk2n5f4+p0NhMwYVdaWd/FRrvTBiGX4bhFT8KDpu1nO9Sa6vYUAwSxScUAW5ZUF/zjFr7nWkRCVszqXm2ONMhiOPtrGla9oNzit6H42i/bMk7xKL9dwBTY1i9OyR0MoW0e7lec75tFKbWPA3gNsPFuJbjHafWVrGhmJ2vfsp0CUGIK9XO28f8tDybT7ufpMinBHg1ZtV7dwjcnSuWc3GqVFOpPEeIPwCI2yx1o4CfzWfcY1qnyHPq3ds9W7nK+MAVSqMaOmluoSSGiE6hPJ7PuPuptfvPnGWcELp+K4iPxq1uBL6/R9q5sJIbfxtJu67ofx+Cz8ew+e6G5czJ18s69eT+kyt6T8DsyRQ9lZIwdGUjQfhW8FGY/oRC0VWNAbJgmnTm653DQZ4NYHPMZhdf6iz6tzQ/x+GVKH/mkxxRV/J/E0Oh0QXhGfm0c4QKjUGRtaZXN9zADQ5RO6vYUEwQ4iOGB6JXR1j2L9XQg2FMYb4hdY1lBfuIIF4ZDwXHeV3+n/s2G0c32y1xJ3uYfw+AuJ1yekAQ7J1Pp34KEarzDoLUcN1fANhgePBSsaFiQzHSgYVGOxcht+qtioPLgvrajk31zkf67lmJ0ybDAzwJHs6u7E5HUdjcFVsnCvwHY3ZMOBDikq60c2hrpnaVeuvgUZgo3RD+1uzcix9RS6vYUAaZmR3cGYZ37NPiErX04LNEJGhtcFsgOAzAszGSr5PFt++f3VE2ukenaUV5RmA5fyORiVGzPGsBH21tcFv0pImxgGI0ngiwV9Src4qKjarHZXAIDG7oFeDVzT3OPWppc+TT7l+CwNkHwO2xqZRgFyuU+5rafSNJkpqK3uG05B4A74nPIIjbgsDZZ0HGvV+90mDM2mj/wfDJLPEl0NUNFRvKoGJ4vwYhty6ZLmU1tFkWTZWX8xn3WKHMRnyur6+j8Le59vLcQRUa7f4sAnciPlfD9xA8L59xTlg0VV5WbzTLvBniEWY/pQBQsaFiQxlUMSCGv08KfqtWjo7WBmeRJTxIBMWYVMmByLymkjcomWNzRe9iCgsA4nI/S7uQHyhkUlfqJtDoEFpGE3yZ3semqNgYUsx8kiNgdr9G2JOydUk5YhakU0/0wNkfNJ5xcdvHBuK7uaJ3Bcj+fbIjJVfyrwbwLcQnj8+tEjr7tzaknlSvixY/tO8HYC6nCzGtUse4FRUbVYc93NvLcFv948YJ8qpaOnpuSMvGfMY5gYILEZ/TKufmit6ilnu5XTldGkk7VwrmgzwrJu8RCHHJhLRzcusU2aTeFj19n6ueNhkey5u86WppFRvKYDQS8V6j01nBfWrlSq4nCAtp93IKDgfwYkzq9JnOsf7NZ5e4TVe9N7YxVVfybwLYFBOrviyCT7Y2uC2VzJaqAIDh+GJhLzWxig1lEAjFeq/ZEuQvauXKU0i798FyZhCIx+2iguO64N/auI7D3u7Hmp/j8DrX/y2Ak2Niyifs0N+/Ne3+Ub0qBm5Ew/GFomJDxYYyOJ2VJsUGu1P2A2rleJCvl3WbhzmHAFwYiwoRR47Y6t91eomj3uyfs6s52t/s/xHAEfGorhToOgfOnzJstXpTTOKXb/8FgLFNuULsrVZWsaEMOHpSAJPLhLJK92vEiyXjZGs+k8oCPBeAX/HBAvhwCv6fZy3nG25nndnBncXz7yFxUAzM5oM8u5BxcoWJ0q1eFB96L0tjp0EH1ZUNFRvKQMmu6J4AYLRBNaM79GNKPpO6SgRHwfAdE9u4ZDDDtv0HZrVzNwBoXsZdndD/M4D3xcBUmwA5Id+Quka9Jq7IUwYf/u6mFRyrNlaxoQykizpOg9Hn0+hOcWWAtKbdP0LCgwCJw90dU20J/jKnwzvIc7y/AtgzBj2kw0b4gXzGuUO9JdaYFBsIxJ+qJlaxoQxIDHCC4RJ0ZSPm5NM1yyzP3h+IwakhcnIYyn2A7FHxviF4yLfsg+Znaparl8Q8jokYndTYwnFqZRUbykBiO8RoJwos/ym1cvxZMF1e6fKcIwDJV9AZ+9J0bV/+DTOaRxZsKjsfXVwvL6p3xJ8wDIzGGYqMVyvHG0dNEPcpAceDxhIxbp5YX6O79hNC3901TU1FbzmByyKfLMQjH2hA4suFBudH6hHJYXMmVaor+T0Aakw8n6GKjbijKxtxh0Y7UacmPEoerRn3+4Q0Ahhqpy62QuSkQoOrQiNpQlkkALDWmA4WqthQsaEMSGtAzO3ZEHSqhZNJIePcQuGhAP41RF75FSE+nk87t2nrJxTBOoNPV7GhYkPpLy2kJeg9amhGychatXKCBUc69bCN8MMgq1w0cg0ZHtTa4D6orZ7gVjQbb8b3+/JARcXGUGdtO3YBkDLY/Z9VKyeb+Zma5UL3QADVeqroCdd3Dyw01KzQ1k74YGNWFA/LdeDdamUVG0o/ENt7j9GZhoh+RqkCWqfIc8M852Ah7ho854hDB8A9ZXEOmTdNntdWTj40PLkJUd5ZraxiQ+kHAWQHw91/nVq5Orh2unRt8p3jAP5iUJRGpRekyeu7ys6RN6Rlo7ZulYgNw5MbS6wd1MrxRY++xplQRkPMTTEdhi+okauHJdOlDPL0XNH/JwSfH8iSQoX5QT7jfhki1FatonAWhi/Ylrn5LQMZrVaOL7qyEWNEwjEmn++7Kb2ArfqchvkG93wKLkxk9YHL8xn3Syo0qg83TL1m2HlUbKjYUOLYeTY7eE2NXJ0U0u7lQp4FICl5VAjh+a0Z90JtverErjF8oaCEKjZUbCj96ztG92z0LBknW9XK1UtrQ+onFMkiBtfUvwMBhXPz6dSPtdWql3mTsBFAYKyAUD+jqNhQ+jfVM7uysUEtXP0U0s5iiJwMoCemVSxD5NRCOtWqrVXtsyehABvNPR66QVTFhtJPuTHaYMfUTyhDhHzauc2CnAQgbitZWyA4Np92btZWGhqEEIOTHF3ZULGh9LPvoNZYp6eubAwlFmSc31HwSQCbYlKl14Q4Ip92/6CtM5RCGo3FHWE4TC2sYkPpDxTbXKeP7bK6YohC2r0P4McIlCs74KA7tHiYph8fkhiLOxTYal4VG0p/grIYzIPC2G8aVMw41RFiNAX+trgeam3Kx7QxhiTm4o6KDRUbSj+DMg12HlGxMdTIFcufBXFJTHz7O7n28lxtlSFHYM6nRJNUqthQ+ikIjHUeocEjaEr8hEbJPw6Qn8TKu0V+1lT0T9LWGUohzdwkR6gZsVVsKP2d/Rlb2QhFxcZQIVvyDgF5ExC7ZWab4PVzit6HtZWGSEzTzygqNpRYNo65DaK6Z2NIMGtFz3uFuBUwd7JpGwaYt6M2BG6fUyq/T1tLxcYAY5qubKjYUPrZMU3u2dCVjSpndql7si3WH4DK3hmxDde6jQopd81a3p3RVqtuxOSeDVGxoWJDiV+nF237amZmB3e26PwRgl0SUuWdbdu+o7md79bWq3a9YezBouZVsaH0D3Nn0oEaNW910riOw5zQ/w3ASQmretoT/87m5zhcW7FqMZZ4KwS61bwqNpSYiQ2ElfuGr5ijhbTqtvrXA/hgQl9hf6/LX9hCamyqTkzGHRUbKjaUfkGa6zyiYqMa6Sz5PwJwYsJf4+TODv972ppViNG4QxUbKjaUfraOyc6jn1GqjKZS+TwA51aH0MYXssXy2dqq1TaBMig2aKnYULGh9G8SYJm8v0RXNqqIXNE/mpQfVJf/yxXZdv94bd2qalVzccfSzygqNpT+zgK6E9nplUhpWlGeAcQyadeA45MIb8yWygdoK1dNUDO2QVT0M4qKDaV/hAY7Dw12eiU6Zpe6J9OSOwGMqNJXHCaU38xdsXWitnZVYGySozdZq9hQYth5BNhBLZxsZi3nu2zYdwLYqcpf9T2B5fzutE6O0VZPMKQAGGXu+foZRcWG0l9BsNHg44c3rtPVjaTSvJSubflLSAyVrJtTa3r82xrbmNLWT6jPrsIoAK45rcHX1MoqNpR+qQ2+YvLxw7ZgRzVyMvFGBVdDcGiFHHNlhV77Q3Vu8FNt/WQSet1m441Yr6iVVWwo/emcofWy0cYPyyo2EkiuVP48wM9WomwCvxv9L3svCH5fmbdnU669fJZ6QQLjGex3GdUaIV5WK6vYUPqBbXhlQxxLxUbihIZ3BCiVSnj192Crc8qPD5St7gjnZBE8VJFaiFwxp+gfpd6QuIBmNN5QQl3ZULGh9AdfQqNKnZR3qZWTQ7a9ZwqIm4CK3G7ZZnnOJxfvLZsBYN5Y2eL7znEAllVi2ArBG2eXeqarVySHMDQsNmwVGyo2lH5R46XMrmww1JWNhDCnjTuK2LejMtfFPxvYzicXTJc3+OOiqfJyQOfjIDsrUKdRQvt2vSU2SaON2XgTlmtUbKjYUPolNlyY7TwiKjYSQPNSuqHr/xpgfQWKf0nC4PBFk2Xtm/3jogZZbwuPBKL/Xi7gRM/yf9m8lK56SfwRismjy+HWKdigVlaxofSDq9PSA6DL1PMJ7KpWjj/lUcFVAA6pQNHdsHB865Ta9rf7ofmZmuUW+UkAWyKvIfFRb1TwM/WSRIiNsQYfv2GJSKBWVrGh9D+aGlvdEGB3tW+8yRbL5wr4uQoUHRJyer7e/eu2/PCChtQjIpIDEFagjzTppW0JiGTgbgalzKtqYRUbyoA6qPzT4ONVbMSYpqJ3uEB+WKFp6BcLGeeW7fmV1rTzKwEurEh1IT/KrfA+ql4TX0TMxRsR/lMtrGJDGVAQxbMqNoYec5ZxAoFfoCKXq8l1+XTqx/35zdaM+32IXFMBkzmwsKSp2D1JvSeuEyeMM/dwrlMLq9hQBoZJsbFrI2mrieNF4zoOo+P/GkDkJy0I/K4rbZ85kGd01dvngbitAqbbkbBvaX6Ow9WLYubTvWnmdzLnt/KsWlnFhjIw1ht8tj2siF3UxPFixNbgWgL7RV2uAI8FW51TBrrRbolI4I50TgPw9wqYb+9ylzdPvShe7GB379brYoZ8V7heraxiQ4mxYrfF008pMaKp3fuCgNkKeNoay3GO+nfSroEyb6xscX3nhErk4BDI6dli+Vz1pvjgi2M0zhCWrmyo2FAGJAZAo51IYKnYiAm5Fd5HKbisAkW/Zlk8Zv4keWEwHzpvmjwPi58UIPKTAgL5QbbkHaJeFQ9ExLDYCFVsqNhQBtaJAqOdKCQnqJUrz5xlnACrIqnIPQqOX1Bf84yJh+fTNcsCohGAF/F7OUL8MtfBcepdsYhkRttBxNXPKCo2lIEwQmrWA6DBGUe9WrmyZFezNnT9m2FwA91brwDwnELavc9kGQsb3D+L8H8rYNqdEfq3Na7jMPWyCiOSNvj0YMI6PK9GVrGhDIC+LKL/MjjjSKuVKxyHveBaEDMin2sCV7RmUpFk32xNpxZQ5CcVMO/7Rm7xrlMvqzA0Gmf+2XKo+GpkFRvKwFmT0CCgvAO5YvkcgLnIBQ5x1+a088Uoy9zjWfs8AHdHPs6JzMyWymeot1WUyQZVc6eaV8WGMji9qcPcqCPjsqtZqzauiND4ACDfr0DRK8KU8+mo75JoOVT8sjgnA2iLXlzJFbkO70D1uujpy3uym8HGLamVVWwogzM1M9mZLPHLmnUxYua0cUcANwFIRVz0K7SDYwsTZUMl3vuGtGwUBMfC6KfBN8VFyJv0Svro6d5YrofBHBuAdKiVVWwog6E1LNOdydZPKVHO8EmLjn8DIHtEXLSHEI2FybUVnQm2ZmpXWcBJAMrRlizjPPEXtpAa96IcZCzb6CZ0UsWGig1lkAjNDg66byNSOjv8iyn4RNTlCnhOfop7TxxssCDj3i/CSuyj+GRn0b9AvTBKxzMbX2iH+hlFxYYyKFLDdw13JlGxERGz273DQHy9AkVfFdXJk22lNZ1aUJFL2wTf0oRfUZrb7PH6GnF1ZUPFhjIYLJoqLwN4xeDcYJpa2TzZ1dzFAq5H1De5Cu6ZsN75QhxtMuFZ+/Mg7o24WFuIm5pWcKx6ZQSQ0w0+/cV5k+U1NbKKDWWw+itgUr3vBVLUyuZouZeOeP6vIFFffMe1gHNqXPMQtBwqfhA6jYSsjrjo99Dyb2y5l456p1GhIQDMiQ1CVzVUbCiDOzmlyU61Q24l9I4Ug3Tu7l8G4EMRF9stIU7Kp+WlONumd+UuPBHAloiL/siasf631DvNMbe9ew8Ao8wFRj32qmJDGVwBL1I06ghh8F61shlyJf84EOdXwGeaW6eklibBRoVM6h+gRL5hVAQX5Ir+0eqlZvBtd0/DLahiQ8WGMqgNRXnG5PMp3EutbGBmt2LrRJAFGM0z8KZcWUg7i5Nkq3yDs7ACG0ZFwEVzlumFhEYIzcYVUtrUyCo2lMGcIQT+00Y7bWh0E9eQpOVeOoHl3ABgdMRFP+hudL6URJu5r9nnA/hLlGUSGBM4/q+al9JVrx1kJWfR6IqpJf5TamUVG8ogsnVKzUqY/KYtoisbg8za3fxvA/hgtKVynW85J82bIV4SbTZvhni245wC4NlIB0Xg/d4o/+vqtYPtjkbjyubx6Zo1amQVG8ogskQkEGC5wSKm6Mxu8Gjq8A4lEPXqQjeJkxbXy4tJtt38SfKCJTwWwNaIi76oqegdrt47OJxdYg2AjMEinm4RCdXSKjaUwZ4kQEwuGdb07FDOqJUHztxVfA8D3Bh5/6J8rtCQerQabLggnXpChGdHHQ8JLMyVuJN68cDZRG8qAHNHi8XsPjZFxcbQRcKnzTqD/T418kAHfErg+/Ojz6chP803OAuryZR9GUbnR1zsWMBfqHlnBsMlsa/Zrhbqfg0VG4qRvksxKjZA7q9WHhi5kv8lAFEfpXyya5j9hWq0Jx37bACPR1sojmzq8M5Vbx6oHS2z8UQMx0NFxcaQbSzHMd253q9W7j9NK8ozAESdJGqDIDhxyTjZWo02LUyUbssKTgEQaUpqUr6XK5Y/oF49kMHF7ORF4OixVxUbignmT5IXAJjc/LePbhLtH2e0sQ623AAgFeWYKJSm1kztqmq27YL62g6KzATACIt1AeuG00scpd69/ZxdYg0BYwm9CDwf98y4ioqNpGPyO2VtsIO3p5p4++l2vZ+TiHqD7fdbG5xbh4J9C2nndhH8ONpSOTkVej9R795+toTe3gBqjA1cxJNq5WShlxAlDcGjIIwdzyOxP4An1NDbTrZUbiLl1IiLfWDCeuer29Cgctra3qRijo+RTtDjUKQ2FBnmBLAp8qYz91BkGIDaN3XBEBYtvNWRw26LfNNPOkJu9G0EFrlVyG7frvF9B5sA4Mbx2ACRt125cF5zLvRG+gdAcGB0/U0+ky35f0xaNtZKE1iYIQbXoShYqlZWsaGYjH2hPEqDvZhi7Q9gnlp622gqdk8i5YqIi90KkVc6d/NvaSp6wwGMJlAHiAtwhAAp9n7OGYHSGy97JWyAvWc8w7c5byHk2wlevJ0L8i19S2CFvQ8gADvwYQe9/5YrASh6ALBZgDKBMiCbAXoCdAHY4MHfIsC/CHYDUhtZnyOvndPR/bcF9bV6w+g228zs/i+KPKJWVrGhGMSy7EcDGrwtXE+kbDMt99LphH89gJERFz0M5HH/d2Dn2w72CWEEgRFv9T78t9qJljrSLjSSH1kiEqjnb5PcMBpHUp6tKxtJ8wg1QfLIFr3nBNjV0OMDf6uzw+K9ZbNa+nU2X83R9Mu7Ca2xIvIeINwJlBMBHKzWGSKE+Ats3iawXgzJFynhc+Kk1hcmygY1zv/njDbWbXX9DQBsQ0U8m8+449TSyUJXNpKpEJcCOMbQ42271t8XwANDxZ6ndXKMWy6PtWntCnASKGMpsivAsQLsSqAenr+D/Hs/Nak6fShi4SOgfIQgBIDQAjwfuaLXDchzInwexHMEnqfgOUBWWSGfhwTPbUrXdA6VVZHuGn9/hMaEBgA8qs6oYkOJRmw8SnNiA9I7W68asdG8jLt6KX+iUCaSnAjIRJATKbKHgLuhx08B1v9fohegSj5JKNFQC3ASiUn/6UPs9Z7ePKQ26kp+T67or4dwDUNZLcI1IrKawtVu2Vk9b5o8Xy3GIPEho/FPoPs1VGwoURBaeNTo9UOSrE8D2dWsDXvKGcuy6y1yYmjJRCEnApgIYKIHvxYhwP9IB/ZpCpUSSmTU9K6aYdK/D92QBAh4zr9XR7CKwGoRWc2QqyGyBkFQGumkilenpSc5asNs/AhCXdlI6CRZSRpz2rhj6Pr/Mth+r3WlnXfFbdn3tE6Oqe32p0M4DZBJBKYDMg3gBMDosq2iVHj8xvMCtAGyisJVgCyz6LeNT9esidPNpy330unczX8F5jZNk66zo+6TUbGhRDWbL/qrBJxobvYQ7r1oSk3kFx01tjE1zC5PsS17OsDpAmTYe011BsAwbXlFeQNbARQFKBIokvIMwqAttTm1Yt4M8aKuTNOK8gxaYmzlQQTF1rTboM2ePPQzSkKxEP6dEGNiwxH5EMxmK0XTCo4N7WA/gNOskNMhMo3wpwNWre6ZeN2cVucEylszDMDeBPbuHYwJ2Ba8Ub6fK/prAS4ToA2UZYEVPLalPrXC6IqljYNNdlqG1P0aKjaUiMegByEwl7Wyd9/GoKRqPq2TY2q2+u+DhX0h3AuUPQFMJfxh/04ORdEB9a0aQlH6F9s5CcAkAkdDCIsW6kr+lqaitzyEPG2Rz8DG46HtPDFYnyVCysFitjs8qE2rYkOJFqOdjpB+7SjPruZoq+zvGQr3s4j9KLIfevypsPpGTSZx8NTVBaVqGE5gPwH3owAIAQl9ZIve8wI8JsRjoSWPObb9SN/Fj9uL2VTywge0CXXapERIC2l1lvyXgd57L4wMsYE/sTB12Jq3+ve5q/gePwjeD3BfIfYFsC+A3bV1FKUa4DpQHoeFx0F53LfsRxbXy1veOj1reXfGtu12gxV6ZULa2SlOG2KVbUdXNpIqNkTCXNH7K4BPmirDstwPA1gD9O4yX717ucGmHATiYIrsF/j+VFHBqijVOhcdB8E4EMcBhPO6FRAKHrRCPBSmnKWFidINAJZjHWx4k9WDKjRUbCiVmHcQD4mYExuhYFZTuzeJgoM64R9k0RpGQOWFogxV+dF7TcLRQhxNAcTzvaai9xSBh0zfqyTQ/RoqNpSKYAseNJvbi4dRcJhaWlGUt8AlsB+A/UzPQkLdr5FoLDVBchkuzt8BdKslFEWpcrZuLruPqxlUbCgV4Oq09IjgMbWEoihVDfHwkulSVkOo2FAq1wn1O6aiKNUd5jS/hooNpbIIRL9jKso2qHIl0WicU7GhVCZ2UrLt5f1JHkiNpIryjrJcSW60kxAfblpRngFSG1J7oGKaxnUcNnKrfxCBYwCcBGA3tYqiKEOIl4S8K7Ss263Avqt1imxSk6jYUAaBmR3c2Q2CT0B4NIEjAdSpVRRFUdAN4EGCd4jl3pKvl3VqEhUbynYwp1R+XxjK8RAcA2AfbSdFSTJ6t05ERn5CiNtD4W8KmdQ/1CQqNpQ3YXZHeT8J5GQRORlgvVpEeRO6AGwGZLOArxLYIsRmCDZR5DWQWwTYSsCnYBMACLlBAEKszSFQRgjPEnYBQGDx1dc/3EH4GkO8aZ44z6rpClx4//33tgfXDXvedLVNLFg+rB3e8POhjAGAkFIHC64ANcJwOAGhyOjeOmOkAA6BYaSMsISjQIykYASAEYCMBtj337rSp7wpJQhuBnhzPp3S/BwqNoY2TSvKM2hJIyAn910HrVT//KsHFookXrUEr5DyKoSvgHiVwlcRWq+IxVcZ8hU44QbLq9kc1mDLYF0BXo1kV3N0WMYIy+kZbvvWmNCSMQxlDKxwR6GMEcGOpIwR4ZiQ2FEsjEGIDIAatd6QGOZWCnhzYHHJwvqU5iVSsTE0mNNefn8o0gjwZED2UIsMKTaHEuy9MF27Uk1RWeau2DoxsJwnAYxUawwlrS+rBVxC8uZCQ+pRtYiKjaoLbKHlfAaCz5DImOlE2pjx72z8bGsmNU8tEQ+a2stnUuQatcSQjTntAK5n4F9fmDpsjbaoio1Ekl3N0Sh7jSIyE8DBautYEQrxCgXvjrCj/bk17XwMIpoTJTajJSVb8u8S4OMRDtAvCzAGmuMoXp4APCDkYqbcm/WTpYqN2NO8lG55h+ATFjmzLxdGrVqlYvyLwCoRrmYoq0W4RkRWh1awWsKaDaD/BKLLU/JaYDvvXTRZ1mqzxGxSsHzrHmI7TyGyzylc1013Xzfs2dFx7D1IThTIRJITITIRwCQA79KWqRjdAtweiixOvWbfNW+GeGoSFRvxCVjtPVMEVjMEnwGwk1okusBAoChAUQRFhlKEhCt6atzijRPk1bf6pVzRvw5gc2TTJuGcQjrVqs0VT3LF8mcB+VlkQZdybWuDc+Zb/fucNu4YpLyMhFYDLDaQyIggAyKtE5hIeUkEi8Mw/HmhoWaFmkPFRmUExmrWWn5wUkg2C/BhtYhRXhTg6VBkhYThCrGkGPp+cY8ptWtbRMLtGlhK3kdA3Buh79+dTztH6OeTGENKU9G/k4JPRFRiSOKQQoO7Xfd9tJDWmhXd4y3HyTBkhpY1xSKnENgLwM7akOY8BMD9hMwbKfavr05Lj5pExYZxZi3vzji23USgSVcxBp2NApRALgstaQNkWcqzl86bJs8PnkD0nzS1SfdN2BDQ2XNRg6zXpo356kYHxyH0nwawQ0RFrqgTZ5/BGrhO6+SY2m5/OoTTCJkOYBqAvTVGDX6fBuRXDIJrClNrnlZzqNgYVM4usWYzgpN1FWPQCAC0E3xCIE8J5WnfsdtM72nIFr1vCvC1yDoXZXZrg7NImzsZZEvlJqEsiGy6LGgppN1LTJYxZxknBHYwXYR7EnyvQPYFkAFga4sPzmrHZs++ecl0KatJVGz0f7ZT4k6E3yTEWQB2V4v0Cx9AUcjHQsFjFuUxr9t5YvHesjnKSjSt6G6gZT+J6BI53Z7PuMdq8yetz3t3gjgyouK6aQfvLUyuLUX5jo1tTA1PldN2aO9H4X4i2I/EDGiSs/7yghA/c+BcM69B/qXmULGxzcwu9Uy3YZ9LciZ0Q9b2CounAHlUED6OEI+PsN2n4/CNs6no/YnAYREVt9EWZ/r8tDyrLpEsZq3keDvwn0F0yb7uzmfcj1f6vbOrWYuyt5cI9gWsfQHuj969II56xTazFZDFkODKfLpmmZpDxcZbD0jt3sEUXADgKLXNO0PgeQEeE+IxCB506py/zhsrW+I3W/U/A3JxhJb5XD6Tuk49JKGrG+3lsyBydWTeQvl0ocG5KW52mPkkR7i1/vtC4X4WsR8FH9Ksx9s4sAoeCiGXF+rtO3RzuIoNAL1LiiNT3kxSvgBgqrrEthEGOGLhVPePca9n80ruUA785QLsGpEAu7+Qdg7RAJNcWkirs+T/Bb3J+KJwmn8y5UxNQjKpXNE/GuDt6iXbTBuFP0q95i4e6jk7hmwWu8Y2ppra/Vl1brCMlPkqNLZTpTr4YBLqWQ6Cy6ISGgB6HISfU6GRcLEhEkoYzAXQHdGUbxfxg28lwzo8QD1ku5gulAXeKK8jWyyf27iOw4bsmDHUXnjmkxxhD/PmCuRLiC6DZDXyZD7j7hPnCmbby/uLyMORiWrionyD+111jeogV/K+DuKSiIoLKTyokE49HGubFL029B6rVfrHi0L8tMdyfnRDWjaq2KhCmldyBy/wzwJwHhDdnRjV7TzB5NZM7apYzk7vpdO5m/8ogKgE0ZPuRmd/TW9cPTS2MVWX8peC2CuiYPzYprTzgSUiQRztMWt5d8a27Xb1jEHhJRA/LlvOT4aK6Kj6zyhNKzgy1+5d4gX+GgDfVqExmDN5+4S4Vm3NWP+cCIVGICHnqtCoLpZMl7IVci5688KY707AfnUl78y42sNx7BPVKwaNnSD4Tg39NbmS9/Uz2linYiOhNC+l21QsN9PySxB8HcDoobfyAN+w98RSbDQv467S2+bRaC7gR61TUks1flYfCxpSjxC4OsJe++1Z7Yzl592QZvs7gSGXGIvAGBCXbHX91dmSd8HZJVZtrpOqExstpNVU8k8vjwraCbkOwHuGkO/6AP4C4EtkOJXEd4x2FOKD2dXcJW5GKDv+1Ygs7bSsTNU5LTosVy/BVudiQlZHVNxIG96P4maDWe3cTYD9DU+OvmkjnCbAlwncj4hWlGLCu4W4rIvBslzR/3QLWXVjc1Xt2WgqeocT+B6A9w0hJ90M4F4Bb7cc97b5k+SFf/9DtljeRyBPGBUcwjML6dS1cTFGtsP7hIT4fWQTkxCH56e49+iQXN1ki97HBPhDVDGTwMcLGffuuLx/rlg+B5ArTZYRSrjnwnRN27//v/f22+AwKwyPocgxGFqr020UuaSQdpao2IgRc0rl94Wh/BCCQ4eGH0oHyNtB3OF2OQ+83V6BbNFfJeBEg5V5IJ9xY3FfTGMbU3Wu/xSAhojaIZ/POE06FA8NcqXyQlBmRVTccnejs3dc9gHlit5fAXPH3UVQbE27b9lvm5fS7Rnpf1gERwvkGICTh0aoxz0kv1DIpP6hYqOCnNbJMTU9fguAM1H1FwvJKoB3CLGktcF9cFt/q6nk/ZDE+SYnYYHt7GH6ErVtDIhfBnB5RMW9AnGm5NPykg7DQ4NZy/ku2/ZXIKJN5iS+UGhwK/5JpS+F+xqT4wWJywoN7le29ednl3qm26HVSEEjqv8obijkDQ7c85N890oyxQYpTcVgJoXfB7BzFTvZMiGWBDZvX1ifeqw/D+hLwf5AtQfF7GruIp7fDmBUJC4onFNIp1p1CB5aNBXLzX17waJgk4TOlNYp8lxF+1bJu0CIy0yWYZEfWNCQeqQ/vzu71DNdYB1tAceQOKiK3e8Vgt/cnHavievx6KoSG7lSeV9QrgGSkcGyvwKDVvirwbjMp4W01pT8Z01m0STwSCHjfqCiAbFYvl4gp0dU3IP5tPNhzRQ69Gghrc6i/wAEB0YTobkon07NrmjMLXqPw+w+uPX5tDNuMPpTU7F7UgjrGEuksVqFhwCPhcKz4p4ALrFio7md7y4juEyEOVTfKZpnBbghkHDx6zdIDV6w8H8G8LNGZyZWkF5QX9tRkWDY4R2IEA9G5M++kDNaG1JP6tA7NMku79lLbOsxAG4ExZHERwoN7gOVeNemFd0NtOwVZkchuSafds4e7MfO6ejZMwytmQBOA7B7lblhCMj8ILAvWjRVXk5ChRMxaGdL/jGe+E+KcE4VCY2tAiyhyLET1jsTWzPuhSaERt/s6FbTLxME9qcqNdNEiCuiEs4C/FCFxtCmMLXmaQiuimpCKIIrG8mK7EkLbftU44UEZuLTgvqaZ/IZ94IJaWeCEB8CZB6ATVXihhbAZtv2l+VK/sm6sjFAZnZwZzf0ryHQWC1qVAR/A7mo1nNvvHa6dEVRaGMbUyNd/58ExhibfgFPFTLu3pHPvIrlzxHy00gKIzv9bnf64r1lsw65Q5sz2li31fWWATIumhL5uXwmdV3U7xnBXSj/cjc6Y6M6dZNdzVr4wTFCzgLwCQBONfhj78TVOTPOG9ZjKzaaSv6nSF4DYKfkuwLXADJfQidfqc1e2XZ/ft/KkEFvCqcPxj6TbaXvNFIREZ0OEJHjWtPOb3WoVQCgqd0/gcJbIirulSBwMlEumTe1l/emyD+MRkbIzwoZ538r0n4rOJaWnwM4F5A9qsAlX4TImfm0c3McKxe7TxIzO7hzrugtIfnLhAuNAMCfKPKprrRbn8+4l1Z0V7nwl8aLCK1IP6XU9ASXIrq7bm5VoaG8ntYG51YAUfnEjpYTXBLl+9GSU6ohLr1l+02R5/IZ99IJaXeyAB8TYAmAJN9vtDPIJU1F71e5EmM3dsZqZSNb8o8RshWJviytdxXD9Z3WedPk+bjUqu8W1PUweFT4nRLzDKqv9GZHXYpo8qt0BbYzPQ65RJR4MWcZJ4SO3wZgRBQTGIIzIknwREquFHQAnGRuVQPPb0474+J0jLNvtaMJ5FyITEiwa75ESrbQ4NypKxuvo3kp3aaS90Mhb0uo0CCAO2nhyAlpd3I+414aJ6EBAC2Hii8Uo8trJDLZUvmAKAKhQK5CdIncLlGhobwZC6ZJJ4BvRlScLZCrQBqfJDYV/YNMCo2+me6SuOWL6Fvt+PaEjDtJKJ8U4q6++J40dhLhHdmi973mpXTjUKGKi41ZKzneG+nf15flMml5P3qEXBxKuFc+4x5VqHfvahEJ41pZieJTCi3j6ZyzHcHJAD4UkdmembDeuUKHVeWtcDc6PwYQ1V6lD/X5v+GRwXxadhHcFNc2bREJWxuc37c2uEfSDhoAXAVgS8JcUwT4kjfKf2juiq0TK16ZShaeK/nHofezyY4JW8f4pwDXOXCuSVL62BbS6iz5nTB75vyVOnHGXp2WHhMP773/JFgW1d0IIjiiNe3+UYdU5e2Y3e4dZgn+FE34kdVw7WmFidJtRMyvZq14/vMwevEZ1+bT7h5JSozXvJI7lAMvK8AXojuFNGi8RpH/qeTFbhVZ2Ti7xJpc0bsS5K1JEhoCPCYin3E3OeNbG9yWpOWpbxEJRfArw8XsuInBUaYePjLlnx+Z0ACWqNBQtoWFDe6fAdwSjV9yonj+OcaeXw6Og+EbVgXyi6Rl4J03WV4rZFJXdnluPURmAngiQdXfQchf5tq9HzW2MTUkxMacNu7YRf8PAM5BUj6bEH+lyLGtaWf/1rRzQ1xuYuxXJw/Nf0qxhDNNPHdmB3cmcWFEptoaBv6XdRhVtt3xnfMARJWD5eLsau5iJNwZ6r9viEMVPIUyUJZMl3I+7Vyfz7j7CvEhCO5JzHxZ8PmRKf+eSpxWiVRsZFd2p0PX/yuAjySiZQQPUeTYfIN7UCHt3F4Nd2H0XnYkRtOKkzjKhDM7YfAtADtEZKrvFKYOW6MjqLKt5OtlHQXfj6i4keIFXzch6AX4uOG6ty9Ip56ohjZvbXAfzKfdw3ozlOKORMydiYPA4G9ziz1Tq1JsNBW9wyWwHwHQkID2+JMIDmxNuwcX0s7tVRcVhaa/27mkN6hpjud09OwJGE5K9v8NtIqu8wMdPpXtZXOt8z1CVkc0bPzP7FLP9MHtuN5pMH3nC/HLamv31gb3wXzGPQYWDuoTHTGfmHJyCOuh2e3eYZENO1EUkiuWPwvINYh5algh7gpsXtzf69yTQt9FUk8Z9qyl+bS7/6DVuej9IYIZV1/d5fh82rlNh04ApJy2FqNrPNTZYbkuDGUELBmNkBssi5sDK9XV46LrxvHYoLfg9k2sIswsKsRdrQ3ukYMXq73HAOxr1qXCqYWGmhXV7APZ9vL+InIpgI/FvKoeyTMLDamfJ1ps9F3H/AMIPh/reAo8Ylm4sLXevXeoBMRc0XsCwD4my7CscK8F9TXPDHhVo+gfFYJRLVH+KZ9xP4YhRiNpjyh6+wLYR0QyABpE0EBi0jZOEjwRrCaxgkC7kEUh/rGpwX0ibrkUohEc3u8p+EQk8cvCkYV6966BPmd2qWe6ResZo3UFHilk3A8MGT8oeodT8F0QM2JdUcEPJ9Q7XzaZusGY2Ggk7RGlYL6A2djaV1AMIRcX6u2bh9qsLFcqfx6UHxl24O/m0+5FAxKsvZlP/wFgegRmKZPh3tU+6/rP7Gt5z16w5aMC+Sh691GZ2A+zAcD9BO+xLf55MMRnImy7sjstgf00gJoIils+Yb3z3pZDxR9QnYve9wT4klllxLPzDalrhpTyJCXbEZws5KUA0jGu6I0T1ruzB+pHkYqN5qV0vR28xWAEufX7p66fF/CSCevdBaYMG3fmruJ7At9/FmY/ba2fsN7ZYyA2zrWXz4LI1RGZ5Qf5jPulam73We3czRLvZIHkAOxdgSqsEOKXkGBRa6Z2VVUL+qL3fQBfjGbmxDPy6VS/bz9uuZfOmt38tQLsalLMu3R2S1rKgEEeF+cilK9DsEs8a8lfTFjvzjIxLg662OhNuuT/AsCJMbSkB+CnZXG+dkNaNmKIky16dwhwlFHXFTm2v5tss6s5Wjy/hGhS2L/g2k7DvMnyWrW1cyNp1xWDkwF+FoKPIB7XFIQg/gLIdRMy9pI4Z97tL00rOJKWvwLA2AiKe8m1nXR//Tfb7h8vwluN6iHBb1rT7glDPe7OfJIj3Fr/SxRciGhWvraXO+rEOXmwEzMOatA5u8SaOtdfEkuhIbgnlPB9+Yx7rgqN//T+heYnXJzb79/1/YsR1fXxlC9Xm9BoXkq3qd2fVVfyn4HwJggORXxuerYgOBTCmzpLQSlbLJ97dok11WT/1imySShfiai4nbzAv2gAHWCu6QqGlMUadIHFe8vm1ga3hXawFwS/j2EVj+6Cf2t2NWtjubLR/ByHe5v920F8NF524xqhdX7fddDKG1cOIkhLDF9CZ0LrFHlue36p7zbN9oiU/xMT0s6Mapldt5DW2pI3l8BXARmfmIqTnQC+PSHjtlbNSgcpuZL/dwD7R1Bad2A7Ddt7aeDcEncP6K+B2YsNjV5jkGSaiv5JRPijuPVVAn/cPMw5fsk42RqblY1G0va6/JtiJjTKBL7VNcydpkLjzem9W0FMpy93QvGz2z0Lcr1vRiQ0QOLcahnc5pTK7+ss+Q8Rcl2ihAYAiEyAyM87S/6juWK5Ok4siBAWzkM0eRdq7SD4xvb+UgC/ybDQgFBuUqHx5rRmnF+7de5UAJei91N/PFwX+PjIbv/GRnJQfGNQxMaIjuBKAMfESJE9BeEHCxn364OlyqqVMOSiCALu3BZym30tu7xnL1A+E1GHWlJocB9Iejue1skxuaJ/bUhZCuCAhL/OvoA8lC3512RXc3TS2yZf7/6VEd2bAnD29iT6aiEthGwyHmesUD+hvA3zxsqWfMa9mEG4nwCxyfNE4vi6UvCTWIiNXNG7WMgzY2IbT4DLN3vO/vl06nF14Xdm4RT3IREUzQ7onLi66B+6zT9vW5chmr0FZbGCi5LehnPay+9P9QSPAfxfxGdPxkCxhTxTPO+p2Su8g5L+MhaCLwOIYmZvW7S+s60/3NnhfwwiEwzXqVSod/+u0fadKUyteXr8eueAvs2jMVkJ4mezJe+CioqNbNE/DcA3Y9JOT1rCD7Rm3AuXTJeyuu12uBJwQwQjxzZtQJtT9D4M4JMRvfoVC+prO5LbcJRssXxuKPKggBOr0ztlnGXhvqZ2r2V7VsfiRt8x36iOcB+bLXmHbOPM9X8iqM8izS677bQcKn4h7V5uWeEMCJbGohcS3821+7MrIjaaSt7HBSyg8je3+hB8Y8J6Z0a1XO4T+Zjl+4sAGN2zQMgJze189zsNniFweUSv/ZJrO99JapvNaeOOTUX/ToFcAdN3WVQeh4JvrCn5vz2tk2MS289c51IAkeSYkBCXvtPP9F26Zvrzd2j5jn5C6QcL6muecV9zDhTiEgCVzsIrEM4byF0q/RIbs0vdk0ksiUGQW28Bh+XT7jeHanKuwaDvdtM/Gy6mxrO8t726OtcRnISI9hsI+PWkHnVtXsZdA9e/N6p02LFZ4wCOqunxH8x1cFwi+9lE2SBkS0TGOjDb7h//dj/ihv5sACnDNbl7wTTp1CjbP+bNEK+1wW2h4HAAz1W4OilLcPPcFVv7tYq63WKjeSldi/YNAEZVOPD8ma4zY0HGvV9dchDsKTLf/NRO3vJTSsu9dEB+O6LXbRu/3p2fxHbKtvdM8RzvYQHeO0RddRoC74Fse8+UJFZ+/HPudQCWRdOn+Z2We/nmGYJJITAngkrMhzJwoZp274M4+8QgL8fowHJ+2djG7Rap2y02/FHBDwFU8liaL8Ql49POxwsT5Z/qhoPDprL9GwAvmR4o+vZk/B/W7ubNBdAQkVL9QhJXwua0l98vYj2YuCOtgz+ATRCxHsi2l/dPWtVbDhWflKhS4k/tHOtl3+wfZhf9j0bQ3/5VB/t2KINCPi0v5eudowieh8oekd2/LuVv9yfo7RIb2Xb/eIJnVfAlXxLi0NYGt6Ua0xtXkiXTpSwC499Wwzc5udS4jsMI+WpEr3pnPu3+IWntM7vUMz0U+T2Ad6m3AgDeLSJ3N7WX905axQsNzp0AovFBkUuan+Pw/xP4BVGcIGzV3BqD3p4sZFJXQvAxRLT/500hzs+W/O3a77PNYiPXwXEinI/KbQgtBUFwcGuD+6B6nBkshvMj6CwnNC/jGy57GrHF/zyA3SN4RR8SJu6itbkl7m5Rfg9gR/XSN7ADRe6cs4wTEtfXrPCLiGbT31h/s3/Of/sTzG8MZRAEC9RFTa1yuH8RBB8AsLxSssciF25P39smsdFI2gj9X1ZqVkXgj67t7L9oam1R3cwc8zM1ywGYFnOu5/r/OW43p407iuDL0UwKJJ9P1yxLUps0t/PdAf27ARmnHvrmg2no+HfP7ODOSar0gvqaZwDzdxMBAIkLXn+Kx6ffDLO3PYPAAxqvzdKaqV1F1zkQwJ8qNC6PCR3/+m09kr5NP1RX9P4XwAcrIp9Efp7a6BxdjbdxxhEBjc9GSHyueSldAAhT/hcB7BDBq221YH8zSW3RvJSuB/82AFPUM9+WtBP6N7/lZsi49rXQ/hqALREUNbqmxz//3z4lEWwMFZGfq1uapzBRNkxY7xwJkWsqVIWD15a8bcqh9I6fRGZ2cGcn9Nth9rKut5JOF+Ub3O+qS0VH4zoOq9vqP2e8vUUa3dC+zxN/FYCREbzapfmMe3GS2iJX9L4P4IvqlduslL+bT7uJygjbVPQuI3BBBEV1+ZYz2QmDwwDeaLisDW6ds9u8sbJFnTLSePFVAN+uQNGvuHQa5jXIvwa0suGE3vcqIDQI4fkqNKKn9y4Z+YX5FuaZHvyLohAaArzaU+P8MFGDULt/JIAvqEduV9S4cHs3rVWa0HUuA/ByBEXV2aH/RRHzV0sIZLEKjejJZ9xLhTwL0Vz693p2LCO47J1+6G3FRu+dBDIr6pBB8Nx8OvVjdZ8KTRAZXhdBMYcIcEYkDiX81o0T5NXEzFA6OI7Cxah8dt7Eua6QC2a1c7ekVLgwUTYAuCwS4wDnkDB+z0yIsFVdsTK0NqR+0ndHUhhxx2tqKnkf7JfYaCRty8I1EQe8AOCcQiZ1tbpNRR32SQDGL7KjRHCFPNlZB/faRDVA6P8EesS1v+zkWP41SaowXecagGsjKMp4fyPwSCGT+oe6YSVXOFLXicgsAFHmEhIC173dvqm3FBsji97nAOwTqToCz8hnUnl1lzhEQP7UZESK7DUs62tJOuvfl2L6GHXAgbgujs8V/aOTUt/CROkW4BvVYHuhXKseGIMJY9q5AcJzou142KtzN2/OdomN7GrWUuQr0dYT32rNpOapm8QDd6R7owBmPj1IZD711B719g1JsXnjOg6D4EfqfYPR+OE1b5bMKq5sSruLATyTcKu/3DXc/pU6XzzIp1M/hSDSfY+EdcFbrW68qdiwfO9zAHaLroK8oZB2vqHuER/mjZUtJApJfgeLcmGSMs3Wdftfq96r4qOeYsuEcpd/YVKqu0QkAKKd4BlgQe8GcyU2gqPe+SrAhZF1O3Bi525B4zaJjcY2pkLKlyO0xx9SG90cRKiuES9CK/gJIt5oNHgCFve3Nji/T0p9Z3ZwZxDnqtcNZuDD+bkSd0rMwJBx7gBxb1LDhR36P1Ovi53oZpfnNov5W71fH30vACnvKDZGpIJTBNg1okqtCwLn9HkzxFOviB8L07UrAdydRK1hCS5MUoXd0D8fwHD1ukFlBOgnSsBZ4IWI/ujiYHDn/CnDVqvLxY8l06XcXeM0AlwTUZF7Z1f6R7yj2BDy7Igq5MGSUxdNlZfVHeIsjBO54evW1rT7t6RUtnkldyDwOfU2I5ydXc3RSansgobUIyK4LXHqnvJTdbX40nf0/1REdFushP83Ud0bxEauWP4AgEiubRbiK/l696/qBvFmfL19ByFJmrGEQiYqLbkX+ucimpTtQ5FR4vlnJqnCIuHXkKjPl7Jyj4x9l7pavMlnUn+n4GsRFXdI04ryjLcUG4SVjUQFA79rzTi66z4BtIiEQibongPe1JcnJBn2vZcOGE1ys6EKgTOTdG/KgvqaZ0DenCAL/yxJG7GHMnvUO98H8IdIZn32G/XEf8RGYxtTAjZGUIctCPyzdENocnDh/BxAdwKqGpD8VpJsu2634AgA71EvMzjvBnZdM84/PEl1DsLwa4g2KVN/2RoEjuZGStDkMbCdZgCbjfc78tTGNqb+j9gY4QZHI4KshRR8szB12Bpt9uQwr0H+lYyZliwqNNSsSJJtQwlnqodF4BkhE2XnRVNrixDjF6YNhmVv0n13yWLRZFlL4jsRFPWukangE/9HbAjCYyMovDQSzhXa3MmDFn4S8yp6Av/bSbLp6SWOAuVY9a5IBsUTmlcyUfti6AffAFCOt4gLNWNoAtnsOz8AYHxiFoY49g1io4W0ADnSuGMKzkpS6mjl/1NIpx4m8EhsAzNkQWumdlWSbFpD70QAw9S7ImFYOQwSJewKU4etEZGFiG+n+2vrlNRSda3ksWS6lIVyvvExHzyqV1/0iY3Okrc/gJ0Nl/tAa9r9ozZzomeHV8a0Yt2O2JcmzZoEPqY+FaH3Ijw8aXX2LfvbAGI5QRMrtvFA2Qb6kh4+brjT7bKm6O33H7FBkUMiCKzf0uZNNqmN9hKA62I4aP9sflqeTeDwd4h6VZSOIokTG4smy1qIxO80GNk5/ln7FnWqhAtwkcsjKOMj/xEbQhxsuLy2Qtr5kzZtspk3Q7wYJvna7DjOZUmzZa7UMw3AWPWqSBk7a3l3JmmVdj37OwC2xGqQglzdcqj46lLJZlO9/WsAJbNiAwf1io3eHOYHmp158jo96loddKec6xDBsaltD3q4Zv4keSFxM4pQDlVvih7Htj6aOJE/TZ6HIE4ZOjeFKWeBelPyWSISiNDoBJLEgSDFyq7ongBgR4NllVN0f6HNWh30pr2VRXEJen7gfD+JdqSF96s3RU8I6wMJlUmXx0XkC6RQmCgb1JuqA8t2fwGzOV12ntuB3SzbdqcbDarAffMa5F/apNWDhP6ViMFlUQJcm9Qz/qRMUU+qhM+wIYn1zqflJSAWqxthIL5uDK0i5k+SF0A8YFbk+9OsEJxqOKzeqc1ZXbROqW0nUOl23eJZyU15L0BGPakiNCS14rbj/AAV3rshgt/23QatVBEE7jAqNkLsaQGSNlmIRdynTVl9WMAVFQ56P1tcLy8m0XZzV/E9AEarF1WEHZvb+e7EzkCB+RXtd8SP1YWqUGzY/IvZeC31FsBdDZaxaXzGfVqbsvpozbh/AlCpC8+6ETg/TKrtfM/XVY1K2h9+Yj9hub5zGYCtFSr+8QUZ9371oOpj4jr3SZhcNSPHWmL2+N0yvQ2witWw8KqKzK4gP2+dIs8l1W5iiV68VkFCkZ2TWvd50+R5QAqVcVzRVY0qpe8Ys7n05YKxFsGdjA1GYIc2YxXjuDcCeOH1LR4BPZbY30u2SgtHqvNUUOwRibZ/YNuXIfo7U57rKtu/Uu+p6ulju7lHc2cLkBEGZ6DrtQGrl8JE6SZx1etbPIKhopDMbKFvQMVGRUm22Fs0WdZGfWeKAFcsmS5l9Z0qFuEizxt8+AgLQK05MYPXtAmrG89yrgEia2fPDr3Lq6Bbq9hQ+w/sDTz7UgBeRMVtdGxnnvpNdUPiFYOPH2ZUbADo1iasbm5Iy0YQf46mN8iD86cMW538sQ4j1HMqiJX8laUF06QTwMORdDvwznmTRSeO1S7BaXS8rrUAGNvAaQlsbcIhoIglojs+LIz793XFCZ9B6J0SlQyqIRL/OaCFtEhEstHYouyuXlP9hBYcg4/3LRg87hIKhmsTVjfZUvkAAQ6IaJSuX1sKTkj+xBqb1HMqSuLtv7YjOFkkmsRwFBzctKI8Q92m6kW4yfF6qwWgx1hQDZN7xEzZVgeVCyNdFQC/1nd5YIKhio2KOm3C7U9KSH41WoUsX1bHqfZ+Ye5IPvvExqvmFDHHawtWL7OWd2cgOCbiYvdu6giOSXantlRsVHKsRrLt31QMjhfgvdHaDCc2FbsnqfdUdc8YZyzkARssAOaOu0CmagNWL47lnAsg8j0UJL+R5NWNENio3lM5rITbnxYvqkCxdgj7bPWeqhYbexoUG89ZAA2KDU48rZNjtBGrj9M6OYbCWRUqft+mYvCJpNrOlmC1elDlEASrklr3bMk/BsSMytgNc5pXcgf1oOqj974gMbayQfJ5izCaIMka1hMcqE1ZfaTKfjOAuoppcOHXk2q74UyVAATqRRUhGCapxIoNkBdXsPSRXug1qQtVH74VHAiDWRkJedaCcIXRvgEcoU1ZXbTcS0fIMytcjQNmt3uHJdF+V6elh5C16kkVmZ+vvjotPUmsebbD+4QA769oJUKc23IvHfWj6oKE2ZViS5ZZQrSZ9U0cnfzTA8rrWTM2ONnkkts2DxuCxK5uWDR4D4HyNpOf5NrdIi5G5TvdhM7dg+PVk6pKaQgQHm20CAmXWWVxl8NgYi8BJ+ZW+h/UFq2mySE/H4tqAB9u6vAOTWT/tsyKfOUtWZbESjcVvcNJHBSPfsfz1I2qhzkl/0OGJ49BzXB3uXVDWjZCDAc+Sk6btDqYvcI7qOJLua93rQDfTuYMW/6i3lQJw8t9yfQXfCs+E2EclCuWP6DOVB2EkKzhIp6aN1a2WL3OIw8Z9s7TZy3nu7RZk49Y+Hy8KoQDsx1e4k6mpCz7fugm0ajxPct+MGmVzhX9oxFVlt5t7nY4T90p+eRK3Angp836ijwI9OVIsASmO+Awx/bP0KZNNtnlW/cQ4PjYCSDiW0nbFzRvsrxG4DH1qkiXBx65IS3JyrFBCsBL4mdKOSnXwXHqVAmfPIb+mTB7GSsI/O0/YsMT+24Y3LfRV+D52dUcrc2bYMe0nHOAGF6uR8zIFoPjEjj43aNeFel0PHH2bioFJwLYN4ZVcxH6Z6lTJZfmldwBgnMMFxPajn3Pf8TG4np5kcBSw4WOFs//ijZxMmlawZEQxPeMvfCSpN0Ia1n4rXpWhPYmb09SfVtIi2BLfLUb/mfmkxyhnpVMvMC/mIDZpJvEw/MnyQv/ERt9/3FHBO/3+VypZ5o2c/IIbW8mgNhmDxTgvZ3FoDFJNm1Nu38DoEdgo6G0oCH1SJIqvKYUnApgz7jWj8AYu9Y7TV0reczp6NkTwLkRFHXH6zRGL34Q/DKCgl3S+qnm3UgeAvlc7Oto8ZuJSzgkuFG9KxIWJqmyjaQt4Ndi774iZ6prJQxSwsC6CoBr3D8Y3PJ/xMaiqbVFAH+PYAb64Wwp+LS2eHLIlbyPgNgr/n0ImbVjg0TNtCzPWdg7SVRMuoYd+okSdXUlbxaAKQmo6t65Dk+vpEgQTcVgJgTm8xMRf22dUtv+f8RGX7S+PpIAC16TXb51D232hEy+icTMXijhJY1tTCWlvgumSSeI+9TLjE5w7pk/ZVhiLr9rXkoXsC5OjIFD6upGQpi1kuMp/HEk/U64+I3j/uvoqXVvALDZvODBGLGdG3s7lRLrwLeMuzKGx13fxsX3GOl62UQZ2cLl6mnmCIjvJqm+/ihvDsBJCepzJ89dxfeop8WbxjamrMBfAmDHCIrrCl33prcUGzdOkFcJWRzRu3/QH+V/S10g3niu/z+I4NveIIvZi7OrWZuU+ubT7h8APKreZoS/L2xw/5yYAWEdhxHy1YTZOOV7/hx1tXhT5/iXRZb9WaRQmCgb3lJs9P5McDUi+oZM4Mtziv5R6gbxpOVeOiCak1dzGWd5/tmJEkiU76jHGfGFRKWzH9HtnwNg98RZWfg5vQ02vuRK/nGQyLK+UgL/mv/+S+v/zrJqlgH4XVQ+GoK/yJXK+6o7xI81uwcnANgtiXUncNGcNu6YlPoWMvZtBJ5SrxtUHs+n7d8lpbLZ1RwtxJcTKurGrRkbHK0uF0O/ai/vD/IGAJGcAhXBba/fGPqWYqP3p/kNRLdDfiQod83p6K5Xt4hZ+Aj5vwmu/mi6fnICtwhBnAU9mTJ4elNwPkSSY0/PvwjRfE835cJ6JUXMaCp2TxKR2wGMiKzfBbz0Tf3jrX4jV/R+C+CYCF21w7fsgxbXy4vqIpVnbrFnagCrLSo1bIhuWE4mXy/rklLhXHt5MUQ+ox44YKVRKGScxNw2Paudu9nilwAMS7LZJQymvtmsVome5na+2xP/QQAN0QlO/KY17Z7wZv/2lumdLSu8CIAfoZ/WO4F/a9MKjlQ3qTy+2GcmXGgAQC2D4BtJqrDtul8EsEE9cAABD3g1sOwLEtXuEnwr4UIDAISW/b/qgZXn9BJHeeLfEaXQAOAFCN/yyPZbio0F9TXPgLg64ihxIG3/niR9a69GGtdxmJCnV8XAI8zOLvVMT0p950+SFyj8qnrhAKYt4FeStELamzqas6rE/LObn+Nw9cLKkV3N0Sn6fwDwgYiLvnJhuqZtu8VGr0x1vgFgfcSRYkbo+n9qbue71W0qw8it3ikARhsuZgOAZ6KYNFqhdWmS7F+od38qgt+oJ/aL2/Npd16SKhyG1ncRzW3KywC8ZriM0d7m4ER1w8pwWifHiOf/EcAB0Q7beL4sztumsnhbsdE6RTYB8qUK2Ox9nvj3Ny/jruo+FVkOmGu+CLQKpCWa98FxTe3ewQmyP7tTThMhq9UZtyvkrbU8J5ukTaHZdu9DAI6OyK8uEsgi883AueqL0TOzgzunevz7AOxfgZh17g1p2dhvsQEA+YzzCwjuqYDtpnqOf8/cFVsnqhtFGfx6ppAwfdcBfT+4rjVt34KIkllR8IMkXQB44wR51WZ4KoCyeuU24YnIqQumyyuJ0vXAZRGV81i+3v5tyOBamD/x9JG5xZ6p6pLR0VTsnuSE/l8EeG8Fir+7kHaWvNMPWdvyJJvhWRUKelMCy3lYL/qJDsuy/geGN4YK8YdFU2uLvTNQ+WZEr/aBXEdwbJLaYkFD6hEIz1Ov3JbBlGe1pt2/JWuA8E+CIJLYFlq4GCIsNNSsEJifPAawsuqVEflRu3cwYT+Mylzc1xMEwVnbNLZsyw/Nz9QsF6BSFwPtjBD3NLX7s9StzNLYxhSJmeYVjfz03/+Zzzh3gPhrJC9IfqeRtJPUJvl06qcAvq3e+TbNKmhpzaQStU+j5V46BKNq1wcL9e5d/xEekGsjKDObpAsRk0qu3T+Fgj8C2KkiIl94Yd+N8YMjNgCgNe38AMBvK2TTGgoLTUXvshbSUhczw8hUcLx5p+XaTfVvzOooQFTHFKfVlbzEfU/OZ9yvQeQa9dA3DXfzCmn3kqTVunOs97moZqJhiAtf//+b0/ZtIDtNTxJHusEx6p/GJk7S1O61QPgLVOjINIHftda7V27zHHN7JIxLZw6AZysVVQhc0FnylzSv5A7qbSb81/zGLopcu0QkeIOQbXAfBHB7RG70rST6T1e9fR6AW9RL3xDsft2VthOXtTK7mqMhElX+l1sXTnEfev1fLBEJIDI/goCiG0UNcFonx+SK/q0UfAMVy4XEtbbnzNqezdjbtUowr0H+ReI0RJrs6/9wohd4TzWVvA+q2w0efRtxDzNcTI/AaX3T2ZeEXwEQRPCqO/mB/5Wktc8SkaAr7XwqkkEiEQsaXJTa6Hz6v4VrIqru+V8FEMXR/sBG+KY5W+g682F4Hx4FH5+zjBPUWQePphXlGTU9wVIIjqtgNfwwlNO2dzP2dn+SKDS4DwjwzQp31/Ek7s+WvAuSdMIgzgSW09Qff9iuVgNvzaflpTf7t95kMBEcy+udEX8+iXfxLBEJ8vV2sxCXDHF3vSpf72bnzRAvcYNFsXsSgEhuJBaR1vmZmuVvGscnyj9pfjXRou3noAxC0KJki+VzaclDACdVdPQVfO2/V8uMiA0AGJ92LoXg9xU2vyPEZbmif+tpnRyj3th/ejdNcrZxQcO3n5UHtL8GYEsEr5wKg2Ql+npdT2drg9tC4gsAwqGmiQmel8+45ybqgrXXEcL+HoCaCIraSrG/9Q7R3/gqGQVzkrYpO27MWs535Ur+bQK5AkClN93eMb7e+V6/lGd/fqlFJBxWdj4lwGOVD744rqbHezJX8o5Qt+wfI4rBEYCMM9xQqxZmnLc9creoQdYT+ElEg3bj7BXeQUlts0KD+yOxcDiB54eIm74EwVGFTOrKpL5AU7t3sAAnRTMRxpXvdAHhHpOdP0awUXT3ESv9j2mU7a/P+Efatv8PRHop6lvyqL/VObVFpF+TnH4vm187XboozpEASjGY7o0DcVdT0fuV3qvSD+tZofFjxSQXbNNs1HW+A+CVSF7bwlVJPt3UWu/eG1jOPgDurnIXvU9CZ5982v1DYt+AFAp+FM38C6/avvP9bZk0wpJW4/UJORPKdtG8kjvkiv51FP4OwO4xGCVW2Y5zzOK9ZXN/nzCgQJtPy0uhBEcCiMWlRwQaQ8dvy5X849Rdt92pQTGd7Mq36BS2acY+UTYAuDyi1993bUfw6SS33+J6ebEr7RxJQQuqL9toWYCvd6Wdw1unyHOJnqEWg5mIKo00cem2bt6zezdsG95kKyfoCcLtW83wAv8ZgM2Ix83b/woC/8j5k+SFgTxkwLO6henalSI4HsDWeEzTsQvI32SLfj67mqPVdd9BBQTeKTB/TvvO7Rks6DpXAVwbzYSTl898kiOS3IZLRIJC2r2EdrAngD9UiWveBwnf15pxv5XEEyevp3Edh1HCb0VU3PpNw51tTto1Py3PRuAzw8qhdxKUt+W0To7JlcoLKbwzHqsZAIAtAI/e1sRdRsUGALSm3b+RUukjsf+lOZgVz2/PFcs5PbHydoYS859QtvO4ZmGidFMiO3GxmzvMP78amrIwubaUz7ifoMixANcl8R0IPC+U2fmMe2g+XbOsGtqlrtv/EiDjozGgfHXJONmuiZ/Q/HFqoWgG6LeghbSaSuU5NT1+O+JlJ48ip+Yzqb8Pzpg8iGRL/jFCLkE0u6235yUfC4VnFdKph9W1/z9zV2ydGFjOShhcqiPw/B7rnfEth8p2CdFG0q4r+U8CmB6BKbokdBqSvlT/emY+yRH2MG+u9N7avFsCqvwiBT9KjXCunjdWtlRNH1vF9wS+XwIwMoJA93RXvfO+7V0JarmXTudufieAsUZlEIL61kztKo28/59cqbwvQrk6qjtytoMyIZ8uZJxBSyQ4qJvjCmnndqGcAKA7ZrOl/YTyUFN7eVGuxJ3UxXsJxZkN05euAa3bKzSA3k8DFiSqNOZ1tLzvVFPbLt5bNhcyqSu7PGeSUGYD0hHPpQx2Ejyva5izRyHtXl5NQgMAAt+7PBKhAUBCuaA/n5xaDhWfhOkcNwLYp2vU7aU3C6h3JSiPxFBo9IhI42AKjUFf2fg3TSXv4yRuBTA8hu38soAXj1/vzu/PIFg1kJIrBSWAk02WEkqQXpiuXdnfB2SL3h8E+HgUFhHiw32p06uO3tlr8AkwnAmRYwHUVrA6WyH8rUVr8bj19h+qtR82lbwPkngIEWzyE+DPrRn38H7Xtdg9ibA7zNZVOvJpO5PUHCmDQfNSuuUdvP8RyrcAxPHk5BYBjmvNuH8y4KNmyLZ7HxLB76JS9dv94oJiCLm4UG/fPBSdv6997o9zAASA7PKevcS2ngBgPjGQYOmEeucD/T1HnpiAt5I7eL7XSJFGAQ6OaFKwGcCDIlziWO7N8ybLa9Vs4xbSWlvyHyGwXxQLKJYV7rOgvuaZgTwk1+7dA8GhhuPuga1p929DcXKX7QhOFvJSAOmY1nIzQhybn+LeY+LhxnIMFBrcB8IQRwJ4LZ5tj4yQv8qW/IebOrxDh5zzQ4xnDA1FFg7Yj6bWPA3IgmicAjPWFL051d7y8ybLa/mG1PxCxj2iy3PGWMBH+lKgPzCI/fU1AvdT0ELiw12es2M+436iNZ1aUO1CAwDWlry5EQkNADJvoEKj9zFcHMGYO+Rybsxu9w7LdfiPCPmrGAuNDSL4mCmhYXRl4z8z05XdaSu07yCRiblP/AnCC/Lp1ONVv6qxmrXi+c8DGG1SJQ/znF2unS5dA33QzA7u7IR+EUAUZ/VfCQIns2iqvIwhSnY1d4HvT7HIDEQaCBkl5A4ERomgDkQtBN0kugTYSJHXAL4mZDEUKcJxVhQmyj+Hqv1O6+SYmh6/HUAU+8M20XUyg2HvM9pYt9X1nwdQZ3DAeXWEOLtenZaeaveDOR09ezK0vk6gMeYTz1WQ4BjTp78iORKaK3En0L8FvUu2cSaEcAl9Xto7o65Ocu3+KRDeZHgOszCfSWUHr87eVyCIZhOnyDX5tHM2FKU/Yq3kXyPkmVGURcGFhbR7+eD1s/JiiHzGaJ0hJw325sM40dRe3psiF6M3NX2s0y4QuD9F56R5DfIv02VFkqo5n5aX6sQ5HODCmPuJBcopYltP5ore7XPay++vxs4gFk81L9sG9wZXppwfA1wTTQ/k/za1l/fWYVPpz2xWyM9GM1DIajjOlYMbG8T4pxRheEpVisxieZ+movcrijwB4OS4Cw0Bb4LrHBGF0EAljJEtls8VyI+iEjoDn+TiIQb4uslvWVFyeomjUvRfgNnTCM92pZ09BjvzY7bdP1WEv4jIVA/m086Hh/LOeaUfKwNF7z4AH4kmNskprWnnV4P5zBbS6iz5nTCbwXLLMM95z2B8Yo0Ds1d4B1kWLgRwVNwFxr91qhDfbG1wW6KdyUdMIZO6EiKnAEiEo5E4CBb+nGv37pnd7h2W9I5RQ+9EmD/2uNBEiulCxv4lgKiOph6cLQZVOQNTTE2k/NOiEhoAHm6tt5cM9kP7TmLdaLjuw7e4wbHJb2/vY7mid69l4UEARydEaGwSyklRC42KiA0AyKedm4Mg2A/Ak4nxLMGhluBPuaL3j6ZiublxHYclsodQjA+gZHi9oakcAX4RQCSrDSL8wRltrIOivANntLFOwO9F1YvDEF80tuomofHP3QImUsg3tjHV1O7Pyha9JwX4I4BDElT9tlDCD7Y2OLdWovCKfcpYNLW2SNc5AMBVCfO3vQm5rm6rv6ap6F3WtIJjk1Lx5na+mwLTqzN/LzTUrDAmVDOpvwOmN7f+h922pvyLdChV3omtrv81RJQWnuCNC6e4D5mbDNYsA2D6VN4n5rRxx6S078wO7pwteRfUuf4qChcK8N4k+aeQi9065/0L0zVtlapDRfdNFCZKdz7jnkvISQA2JCy+7EzgAlr+6qb28qLs8p694l5hX7wTAbhGA6HQdNpjBLZ7IaK6ZZg4f9by7gwU5S1oWtHdAOC8qHRNaLsXmXd74/04FaS845PQtrmid6UT+muEuAzJuGfo9Wwk5dOtDalZlb4KIBabNAsZ5xbawfsBPJHAWJOiyEyxrSdzJe/PuXb/lMY2puJYUVJMn0Ipp0L3V6bfY9FkWQvi+xGZrca27Xl6c7Dy1lHU/gmASPq8EN9bNFnWGhf0lvsLAJ7ZgCSx/JRydok12Xb/1FzRu5eWvQLAOQAS99m89wLSYN9Cg3NTTOoTH7KrWSu+/20Q5yGK9NTmeJHAQtjBzwuTa0txqFDzMu7qOf46o3Ylbss3uJHMVhrXcVjdFm85RCZEs8Ahpxcyzo1QlNeRK/mfAc1n3uzzwjVdw9xp23uFfL/frej9DsAnDRbh+5az2+J6eTEW48/K7rQEdjOA2YgmIZsxrQjgh3XifD1OydNidfy0MFG682n3ixQeDGB5ght7ZwG+JIFdbCp6S+OwobTseJ8yL+AkqmOpWDJOtopYX4hOlfNH2dUcrcOr8h8Bv5I7kJFtCoXQOj8qodG78CCmZ8SOTe/kSrZhYxtT2ZLfmCt6d0tgtwP4YsKFxjKLPDCfcS+IW5bWWOa6KKRTD9N19gXwvT6VllgI7PfvDaW5ovf9Su3tEBhfstwyzLd/F+U7tWacXwP4Q0TFvQd+8G0dYpV/4wXB5QLsGk3/xZ+jPkVgBfZvYHpvVIU+pWSX9+yVK3rfr3P9dX13lhyOZBxdfSt8CL5bJ86+CxpSj8SxgrE3brZY3kcgeQD7VFGcWkbBopTnLJo3TZ43XViug+MQ+p1G21v4y3w6dWrUhsyVeqaB1j9geONrH6FFfjCunVmJMC6VygcI5aGIJmyejXDv+ZmayFd7c0Xv1wBONNmnJHTGtU6R50y/S/My7lp2vE9ZIo0kDqoid2wjmSs0pB6NcyVjn8WzkEn9o06cAyD4LkxvWIqOaUJc5jn+ulzRu6up5J8+80mOMNedvRNMC0uGVkU2IeXTNctAXBPZZE/k5y330tHhdujSSNpCuTbC+HllJYQGAIjIL033KdrecaYePvNJjsiV/M/kit5dnuOvE8gVVSQ0ygC+XSfOfnEXGgCQiKDZ9+3polyp53qhdRWBw6rEWWwAR5A8whnmd+VK5Vso8ovUBufP82bIIAorOcHwe2xEyr6rUkYUOt8IxT81iiVtAd7buZt3BpKXH0YZJEYU/XMheF9Exb3g2k7FPt85I+w7vC6/CwZvggXlBAA/HTQx2MbUSCc4DAg/TfFPAFGNifnuJsNzTOY0MhA7k0e25B8jYXh1VCcRKsAGIW8PLWvJ5rL9hyXTpdzfB81aznfZtv9Pk8KSkEIh4+QqabCmYjnL3s9tUbApoDN1UYOs16F3aNF3qms5gB2iKI8iswppZ3El3zlXLN8AyGkGi/B6apz33DhBXu23wCDtkUX/gxQ0Avg0kr3J8+1YL5SLWhucRUmruJVEaxfSzu3uSHeaEJcA6KlChxpNkZlC/rbO9V9oai8vypb8xubnOHy7G9jxjoPpFSyLv6y0wVrT7kIAD0dU3Egb3o906B16eI5/TVRCA8RfC/X29ZV+ZxHLdP92a8rBUdv7S2eXWJMt+cfkiv51dSX/eQoeQG9OjGoUGh6Aq4Z5zpQkCo3Ermy8cebenbFt+yoARwyBWPeakL8NxfrNcM/+47bcmpgrerej95IgU/zL3eiMHdzPPv2cgZXK+4LyaFQi2oIcvSDj/A7KkCDb4X1CQvw+ouJCkgfE4Vt8YxtTda7/PACT6cVvyWfck97ph85oY123GxxBhsdD5FgAo6re8QS/pxWcG5ecTUNWbPybpqJ3OIHLAew7RGKfL4K/h8DtoR/cumhqbfHNOuZW138JRm95lXn5jPPZuBglV/J/DnJuRN1nlVtn71XpNMCKeWY+yRHOMO8ZQPaIZlFDflbIOP8bm35V9BcAbDJYxGa3ztn5zfrSnGWcQMc7gpBjAHwMQM0Qcbs2ilxSSDtLquFlqmZXfWvG/RPIGdmO4GQhvgtwcpU7okPiIAEOsm37slzRXwXwDgFuH7/eua/lUPG7U8EnQcPXyYeV/4TyRuyLAP9Ew7Owfw8Jk7wu/xIAX9LhuLqxh/nfjkpoAHg5DOyLYzUrFf6ShEmxMaK8Kfg4gN+0kNbqld777ECOgeDoEP6+gAyh6wK4VoBLN6XdBUtEgmp5q6pswN5lP+9zgFyM6t0o9Ha8CMjvIJwC4oMmg+KE9c4uLYeKH6eXzxXLnwXkZxEVF0jIA1qnpJbqkFydzGkvvz8U+SsiukKBwjmFdKo1TjZoXkrXH+W/QGCMwTd/AMAqQI4EsPMQdLUXQH67y3fnDeRQgIqNCjDzSY6wh/tnCXERhsK3vejdpzWfcebErVYtpNVZ9B+A4MBIBgfgqdRGZ0Yc9q0og+xL99Lp3M1/FNElFXwwn3Y+DBHGzRZN7eVFFJmpXjHobBbgmh5xvnNDWjZW60ta1dyCi/eWzYW0e7lvOWnp3c+xSf16ULk1jpVqEQkZhp9DREngBHhveaSvn1KqkM7d/YsiFBq+kGfFUWj0DRe3qkcMKhtF8B2Xzh6tGffCahYafXFy6DCnjTvS8c+B4Byzy4FDgi66zk6FidId1wrmSt4PQER1WVsPJNw3n65Zpq5RHTSt6G6gZf8DMLzvqQ8SlxUa3K/E1R7Nz3G41+W/CGCEeseAeAWCK3tSztUDyS2SNKyh1MILpssrrQ1uS63njCd4HoHnq/ZlTc+NyDvjLDQAwB3hfB3gmoiKqwGt+S3kkOpT1UoLadGy50clNACuDbqdWF/0N2+sbBHB3eod/eZfQlxC15mcT7vfHEpCY8iJjX9z7XTpKmRSVwZbnTSJL1Sl6DC8ZsUELKnOGytbhNb5ERb5wbUlr1ljavJZU/LOBHBwZN1VrLMX7y2bY2+YUPRTyvbznAg/79Y5E1ob3JbCRNkwFI0g6gf/yaV/aij8ggDvVYu8k9AALfKXENwbCB9aWJ9aFt/vzECu6N0G4NiIitsIy9kzXy/r1FOSyayVHG8H/jMARkZU5K35jHtinG3StIJjQzs4SIjDADbr2LFNPCngtZuGuYuXjJOtQ90Y6jD/xex27zARfF6AIzFEV376wb8I/F2AhwV42LGdR+dNltdiNni0AZFdyHRnPuMepW6RTHJF77cAjomouC0M/OmFqcPWxOX9s6s5Gp6/vwUcQOAAAB8A8C71jG0iBPA7hLgiP8W9R82hYuOdRUepe7JF+xwAc6AborYbAs8L8JgQj4WWPObY9iPzJ8kLFQugJe8CIS6LzgByar7B+aV6QsKERsn/DMjILj4T4outDe4PKyksrLK/ZyjczyL2o8h+AKboRGu76RZyCS1eppvEVWz0izlt3JEpv5nkGYCMU4sMaAReB8rjsPA4IU+Eof14VDenNi+l643yHwewZ0Qv+5JvOXsurpcXtd2TQXY1dxHPfyaqWTyBp/ZY7+wXVVK8uSXu7iN4H8B9hdgXvVc77K4tP5BGZCdEru2pcX4+1DZ8qtgwRAtprS35HwXQTOAEVFGq9wqzQQRtpLQR4TIL0kZxnsyn5aXBLqip3TuYgvuj8nsCvy5k3JO1iZNBU8m7lcTxERUXiuDg1rT7t8F+8OkljnLES9uBNR3CaQSmg5gBwS7ayoPTdgDuoci8PZ61b41bBmUVG1XE3BJ3D0N/LgVzdGZgbKheC5E2EE9T5BlB2NZV6y4f6EarXNH/GcDILo4j5dOFBucmbc+Yr2qU/JlCRnZ1N0V+Ukg7Zw3kGY3rOKyu25tKWNOF3BOCvUBOB2S8tqiRVlsHkflB6CyIakVWxYaiqx2Vc9hXIVhGShuFqwBZRQTLttSnVmzLpUWnlzgqRb8tQpH4Ml1nz8JE+ae2XjxpXsZdPcd/BpFc3gcAeM61nWnbuom6aQXHwvKnAZwEyCQC0wGZBnAP6N4KXcVQsTG0yHVwHEJ/NoDPAGhQi0ROD4ASgCKJIiyWAFlle87qjVPx7OuFSFPJP5bkbdFNiHBbvsE9Xpsopn236N0O4OioyrMgRy/IOL/7zwoFaY9ajt0D158IcJJFyRBI98WRegydK9XjRDuA62E5C/UYu4qN2DK71DPdpjWTQBbAe9QiFccDZJ0InwfxHIBVJA6DYEZ0PU1m5tPO9doUcRMa5RwgUd6w+iAFdwhlUu9KBcYCmAhgmLZGxQfDVwlZIuTi1ozzUJxzB6nYUN5A81K65R2CT1jkTPae269VqwxZNtji7DU/Lc+qKeJB3+eJZ/SepCFNN8jf0rKuT71m36U3N6vYSDzZ1RwtZe9kiJwO4EMAbLXK0ILA7woZ92i1RDzIlbw7QRyplhhyBAAeEOH1juXeHKcEhCo2lMEWHrvA906UUE6G4MMqPIZSh+PPKPIbhnzFtsNXPa/m1UVT8Iou2ZqjhbRWrcAY1+0Zg8DaMbRkDCgn9qXdVoaKwBD8BeDNtu3eUskEgyo2lIows4M7u6F3IiAnEzhEhUf0yw0x6QUbCHnVAl8h8Grf9+NXQW6GYDMFXUJugFibJcRmCDeF5Gu0uEX8cHN5eO1rmVXYVE275VvupVOchJGpLd070LFGOKGMoMioEDIKghHCcDhFRgtRB2IEREYIOKbvs8iOhIwRcAyA0eroQxIfwH0Ab4a4t5jI3aOo2EgkuRJ3EnonEHIygEOhR2mV/tElgEeiByJbAFDADX3aalNfEO4WYCsAkOyBWFveXIxxswjK76jZiBRE3jytP8PhIlLTV/4w9O5dcqTvojNCRgMQkMNFUEPARXT32CjVhUfgXpA3p+DeOq9B/qUmUbGhvN2Kx5McYQ8PPirE0QCPg55qURRFeTNeEeDPoNwRpuzfDtUr3FVsKAOmkbSHr/T2sQM5BoKjCeynVlEUZQgPXasA3iHA7c5G5y96ikTFhmKA7MruNHz7GAGOhuBg9C47K4qiVCEEIJ4A90N4h0h4x4L62g61i4oNJUrhsbq8j3jyhFpCUZSqHajIfVobUk+qJZKL5tVPeif08AG1gqIoVT5SzVAjqNhQKgh7E4QpiqJUb5yjdZBaQcWGUkGEOFitoChKlcsNjXMqNpRKMaudu0FkglpCUZQqJ928jLuqGVRsKBXAluDDhovoVisrirJNiBiNF54b6KcUFRtKRfq24U8oQlzu2s5oAT4mxCUA7hDgVbW8ogx5NovgIQBXUeRTvuW8R8AfGS2R+iklyWg67ARDix+Cyeu7bPyl70bEP/X9QSNpjyx6e0LwQQIHAPJ+ABnonS6KUq0EANoJeUQQPhyE/NvWhlTbEpHg9T+UK3n3A7jI2OQHuj8t0ZNjNUEyya7maPH8l2Fudcpz65zR88bKlnf6wTPaWLfZ9vcWi/sC1r4Cvg/ANGiyMUVJGh6AZYA8DoaPw5bH/c3Ok4v3ls3v9IunlzgqRf8VgxOPQEJnTOsU2aTNlDx0ZSOh2F5wUGj2M9jj2yI0AODa6dIF4KG+PwCA5qV0e3YoZ+zQ3o/C/USwH4l90XsRl/KOxOc6WqWqhUVJyMdCwWMW5bFNw53HloyTrf152A1p2Zgrek8C2NdU2IPtfxDAH7XpVGwoERGQB4vZseiBgfxy310FbX1/FgG9V4av3a1nfCjOdIDTrJDTKbIfgAboZ5j/QoWGasJBrebzAjwmQBsoywI7bBtF95mr09IzyEU9aFBsIOzdp6ZiQ8WGEuFYdKDR4ER5aLCf2XKo+ABW9f25/d9/39jG1PBUOS2w+wQI9gNkGsCJOuoqqgm3qzqvQrCMxGMCtoGyzOt2ntiWzyCDUwF5AOQ55h4PPZGiXUWJikbSriv5GwDUGZsIifOefFpequR7ZldzNANvstCaBHCSFXI6RKaxdyWkbqi0t35QUf6LMiDPAlwmQBvAVYCsshzn6fmT5IUK99ldxPOfN1jEaxPSzo4tIqG6gYoNxTBzOnr2DEPraYNFLM9n3GnxHX0ps1ZhnBP4mVCYEUqDEBmKpAGOh25MVapDUKwVsoOCdgjbw1CKlu0U85PxLEQY14rnin4JYL2xQSsMprROqW1XF0kW+hklgQSU95tVifJArA0gwkXAWvT++dN///NpnRzjet6kf6+ICGUSwEmATAI4Abo/RInHTO9V/P/Piqv+vUIBBKs2pWs6//toaYJ4AIAxsRHazvsBqNhQsaGYn9lb+8Nggg0KHkyyeW6cIK8CeKzvzxs4u8SaTWF5ogV7Iq1wD1B2g3CcUHYjMBbAeAAj1MmUAbIZwFoBnqNwPShrBVwfWrLG8oPVI+yaNQY2Z8YjPEn4oFBypp5vEfsDWKwupmJDMT4j4n5GgwX8v1ar7foC/Iq+P29KdjVH0y/vJmKNAzkWkHEWZLeQHCvA7gB26vujn2uGHh6AlwC8SGC9JfJcCK4Xci1EngsRPltjpZ7tS4Y3JLGC8CFa5hYPCep184kct5REcXaJNV30XwNQY6iIV/Jp591x/iYcF7Il7xAh/qiio/ohULaBjy3IuPerNd7JWJRcyX8FwGhDJXS7G51RfcfrlaSIUDVBstgSensbFBoQ4hEVGttGIe3eR8HX1BJDYFYmvFCFxrYbS97kE+YgUhvs4O2phk4W+hkleTOs/U0+PxQ8qlbedvaod77fWfSPgODQSP1A0CLAfQxlBCyMsBiOAWCFIjv0zSJGgbAJDAOkFoAj4Mg+HxqN3lXNEQKk/su/HEBGvkWpb/h59p6YeIv8DdwkgP/fqwPo3ctAATb0/p1sAuAD7BZgKwRBCGwEAIt8LSQCWNYGhNgsFjeD+BCAb0Xc5+7fo969Ur19O+II8agIDjPWJr37Np5QS6vYUIyJAWuGGNwcaoksVStvOy0i4ayVzDqB/w8CYyKbPBJfCiW8eWFDzV+Giq2zy3v2Etv6SsTF/iukc5rmddju1Y1HzW5it/YHME8NnRz0M0ri+rDZzaGOZ+vKxnayaLKsDSFzIy52hEVryRltHBLJzU4vcZTlWDcDGB5hsaRI06IGWa9evp1xyjIcR2g2DioqNoY0zUvpgmgwWMSz86bJ82rp7aeQcW4B5KcRFzt1a8qbPxTsW0N/PolMxMVeVUg7t6t3bz/5ellHwGQsmdZyL3VlXsWGYoLyiPIU/Nc39kFGVzUGMtly7fMBPBltoXJKtlQ+o5rtmi2WzyXQGO3UHE/TdS5Urx6ICY1uEq15drdyWq2sYkMxgW3vZXbgUrExEAoTpRsSngZgS6RBnXJFU8n7YDXadE57+f0C+V7ExW5mGH6qMFG61asHpDaMxpNQDMdDRcXGkG0s4XSjscEyOhMZEuTTNctAnhtxsS7JG+e0ccdqsmVzO98dCpbA7Grem4yRPKvQULNCvXmAdgzFrNgg9firig3FyMID8V6Tz/fE+YdaeRAER0NqPsAbIw7te9D1f9VIVsW9L42k7Yl/PSDjI+5kv2rNpArqxYNhS9voJ0UxHA8VFRtDWW2YXDZ8aXG9vKhGHqSlBts9g5DVkboHcNjIkn9pNdhvZIf/PQBHRCzYVpYt93/UeweH1inyHICXzTWX6GcUFRvKYNO0giMh5mZ5AjylVh485k2W18DwFPQmsopScHw51+6fkmTb5Yr+p0mcH3GxHiX8zA1p2ajeO6g8Y9DbJzat4Eg1sYoNZTC7lePvBYN32YTA02rlwaXQkHqUgq9HXKxAuCC7vCeRs75ZK3reC/Dnkfcv4sJCOvWweu2grz6YjCsS2t50NbKKDWVQ1YDRTyiwhM+okQefPeqd70Pw+4iLHSG2fctpnRyTJFvNaeOOtmXfCmBExEXfUcg4P1ZvNaAGGJqdxITQTykqNpRB7rZTjfbZUD+jmKBFJOxJOacDXBPxXL2+psf/ZVI2jLaQVpjyrwc4KWI7rQ0CJ6uXD5oKW0ZXNmBZMkWNrGJDGVxMJrAJg253mZrYDDdOkFctIvL9GwA+NrLD/2YSbLS25H8HxJERF+uJyKmLpsrL6qVmqC07T8PgJSkk6tXKKjaUxIgNWbV477e6vVMZDBY0pB4B+KWoyyXxlaaS/6k426ap3T+BwJcjt43wvNa0+zf1TnNcO126CFmT0EmYomJjaNF3B8AexqSG7teIhHwmdZUASyIuVkjOn13qieVGujkdPXtSuAgGNz+/qVHAmwrp1LXqlZHY2uSnlEnVkltGxYZScdaN69kDgGtuiod2tXI01HpOE4DlERc70qLckStxpzjZYtZyvisM7d8AiPTmWhEUe8T9rHpjZBQNPrtm1HLsriZWsaEMhhYIHLNLhcKSWjkarp0uXZYVfgoR358CyB6gf8vZJdbEwQ7NS+natn8zwMkRF705QHii5tOINIJ1GH264+unFBUbyqB0JgmNdiahqNiIkAX1Nc8QUolMlQdvYvCzONjA3yH4CYBDKtCZzlyYrmlTL4yQ0Gx8oVDFhooNZXDUgGW0M9m+o2IjYgoZ50ZAWiN3JTCbK5U/X8l3byp6XyJZAbEl1+UbnIXqfRHjmI0vAtETKSo2lEHpTCFNdqaueVPxT7Vy9HQNs88C8GTkBVO+n233P1mJd84V/aMJXFaBoh+na5+nXhc9EyZjPYCtxtyZeiJFxYYySGMDTH7XXqkJjSrDknGyNZTgJAFejbhoW4S/yJV6pkVZaG8Kdd5Ygbjzsh36JxcmSrd6XfS0iIQAVhosYrJaWcWGMnDZLgDGmXq8mN0prrwDC9O1K0PgFABBxEWPAuV3UZ1QmbWc7xLbvhVA1BdnhbTwmflThq1Wb6scIjC5SXScWljFhjJAch14N4Bac1EAul+jwhQy7t1k5Be2IaoTKhU8eQIAXynUu3epl1WWkEbjzMjTSxylVlaxoQxkOAi9sWZL4Cq1chwEh/NdAr+uQNEHdzEwl9yKFG8Hbz4qcvKEv8qnne+rd8UgjoEmP6MghbLm2lCxoQwoXopldIkwpKxVK8chGguHe04WQAWyubIpV/QuNvHkXNFvAWVWBSy6vGy5/6P7keIy0FjPmhUzlooNFRvKwDpRaLQTiYTr1crx4Nrp0kU7OBHAhgoU/82mdn9QRUG26J8Gwdei7zN41bKCYzVxV4wmTQyNio0QVLGhYkMZUCeF7Gby+WWknlUrx4fC5NqSSEU2jAqF85uK3uGDIjRK3iEC5hHxnScAwpDymQX1tR3qTfHBD13DKxuiYkPFhjJAsWGyE23S2V/8aE27f4SgElfDuwR+3XtEtf/kSj3ThLgVQCr6GTS+Vmhw7lQviheLpsrLMJhrAzQ7KVNUbFQ9AprsROvUwvEkX+98C8DNFSh6lNjWnXNL/VuWbl7GXUH5PYDRFVDmtxUyznfVe2Ibzdaba3qq2FCxoQwQk51I92vENi4Ly+LMAbCsAqXvHsC/deaTHLE9v9S0giM9x/8dIOMrUOc2oTNTN4TGGRr7lCLQm19VbCgDxWDSJdGVjRhzQ1o22qF/NICXKrBKMMMZ5v+q5V462/LjjaRNy78ewPsqYKqXLSs4vnWKbFKvibPWoMl9G+9WA6vYUPrfOQXAGIMFPKdGjjfzpwxbTcGnAHgVKP6Ta8cGV27LD47sCH4K4NgK1LFsASfqhtD4IyImV1LfpRZWsaH0k+wa7ADAMfV8gi+qleNPIe3eB/CzFdG7wjOait7bHl/NFr1vVuYWV0DAsxdk3PvVS5IweTK6Qlfb/ByHq5FVbCj9aRyvZ0ejzxfrFbVyMshnUnkAV1aibALfzBXL57zZv+VK5f8VRJ9Lo09p/LA1k5qn3pEQrSE0Gm/CzdhRraxiQ+lP56FldGkwFL6sVk4OXWnnCwDuqEzp8uNsyW98/d9k2/1TQbmmIrUh7uqqdy5Qr0gQhic35aCsYkPFhtK/vilGO48dUFc2EsQSkUBC5zRUJKU5LCGvbyp5HweA3ArvoyIsVCiGLHcc59QlIoF6RXJgaDbeOI6l+zZUbCj96pwUs53HDlVsJIzWKbLJDv1jUYkTKkCKxM3Zkj8TFm4DUFOBOrxsWcGx8ybLa+oNSZs8hWZXUkPRlQ0VG0q/OidDo51nq1ujn1ESyPwpw1aTOAlAuQLFjxSyAKCuAmV7FJysJ08SOnlyUmb3bBiOl4qKjeoVGyJjTPbNzHjo7DChFBrcB0CeGf2IUbm4IWBz78kcJYls3gKzK6mWrmyo2FD6F9cFwww+fkOLSKhWTi75htR8CKJNzy0V6gvAt1ozqYK2enJZMl3KALqMuWYIPfqqYkPpFyFqDYbvLjVwFQiOeuerQi6u5ncU8KZC2vmGtnZVsNmYn0hF9hDyDoNIAAAXZUlEQVQpKjaqIcqKQbEhPWrgqvARbvLduQL8uRpfj8D9I8TN6p0n1dKg7DboK7VqYBUbSv8w13kE3Wre6mDJdCk7tnMSKnMk1iTLyzXO8VenVRhXkTg2GHdExYaKDaV/hOaWBalio5qYN1leY+AfA+CF6pgB45+W7xx54wR5VVu3qjAYd0IVGyo2lBgqdZ0tVhmFqcPWhBaPgsHv4hGxBcLjF0yTTm1VFRvbHi71M4qKDaW/1Cay0ysVY2F96jELcgqApGbXDCByWj6T+ru2poqN7SLUzygqNpQ4KnUVG1XKgozzO6ACOTgGA/K8fNq5TVuxSkMasTWh8VJRsVG9kOaulwfgqYWrl3wmdR2AHyTM3y/LN6Su0dar4pgmBrPeEim1sIoNpV9CHcaSbolUKj2TEpngSDtfBqQ1GTNeLi5knIu01XTMGUDA9NW8KjaU/mGs8xheNVFiMYILu9J2M4BbYl7T28c/5zZpLo0h4JIm446KDRUbSr8JDHZMW81b/SwRCbqGOZ8B8EBMq/g3t845teVQ0YFiCEAxKDaY2E3RKjaU6hUbpIqNISM4xslW13aOAfCPeE1z8XRPjXPUvLGyRVtpyGBMbIiubKjYUPqNb7DhVWwMIeZNltckdI4CuCYmSmOV6zlHaNKuIYexuEOq2FCxofQXcysb0D0bQ43WKfIc7fDjgoqvJHSTwVHzpsnz2ipDDnMrG6CKDRUbSv86jzmlLqJiY6jRSNoSOBcSrPRV3LUi9nktpMYfFRuDRgjds6FiQ+kXNKjUSdSphYeQ0Ghjqq7o3QiwKSbe/dnOkre4eSldbZ0hhbG4Y3JypqjYqPbm2Wgu1nO02ndocHaJNSNT/i8h8ql41UxO80b5tzSu4zBtpSEzgxpj0J9eUwOr2FD6pdS5wdzDRcXGEOCMNtZ10b+DxPExreLRdVv93zet4EhtrSER1MzFHWKDGljFhtKfvkOYVOqjGkk9kVLFnNbJMVtd/24Ah8e8qh+h7d8zaznfpa1WvZxdYg0MXi5JQFc2VGwo/WsdgysbgLhrMUqNXJ3MXcX3pHr8+wAckAxljRm27d/ftIJjtfWqk622wVUN8/FSUbFRvTC0jOYgGL61e7RaufqYs4wTAt9/QID3Jqzq00IreLCp2D1JW7H6CMs9ZuMNLRUbKjaUfmGbVeqBbY9RI1cX2eU9e4WO/xCAdBLrL+BEwrpvdqlnurZmlU2eLMuo2CCpn1FUbCj97D1GxQZh7aZGriKhUfIOEdt6AEDC21XGWbQezJW8j2irVg8Ca3ejg5lFzUarYkPpV+MEodHOI2E4Qa1cHeTa/VOEuAvADlXySqNB3JUr+Sdr61bJ3EnC8SafHyLUlQ0VG0p/qA1q1hsVGyK7q5WTT7ZYPhfCGwHUVFsXAPmrpqL3JW3lKiCUcSa1zJbamufUyCo2lH5w7XTpEsDg6gZ1ZSPRU0VKU7vXIpArqrgvC4Hv5YrelZrePOktCZPx5sUl42SrGlnFhtLf8QRYa3CsGq8WTiaNbUzlSt4NFHxjiLzyOZ0l/5fZ1azV1k+s2DAZb9aqgVVsKAOjM6GdXzHEaZ0cU+f4dwHy6SH26idbnn9HdrWm2k/ozGmcuUer2FCxoQysE4msM/j43U4vURN7JYjZpe7JNT3+QxAcOjTHKxwmXvBo04ruBvWG5NAnEHc2Nm+iig0VG8pAw6tJsSE18DWfQUJoavcOtmj/DcDUId4n6mnZf23q8A5Vr0gGtue/F4CYG8mMxklFxUb1IxSjip3ke9XK8SfXXp5LwT0AdorB6sLDMTDJjgzxx2ypfIZ6R/wJDccZoaUrGyo2lAF201WGO6mKjRjTSNq5du9HEPk5ALfyiwr4ZiHjfhCC78bAPI5QfpIreT/QSwXjPmuy9jTqlhKuViOr2FAGgL/VfQZAaK6T6spGXDmjjXV1Jf8WCD4fg+oQwJfyDe43ACCfdi+i4MK+v690zb4wsujf0bySO6jXxBXubTJM0nGXqY1VbCgDYPHeshnASoNF7AVS1NLxYk5Hd/1W1/8bgGNjUJ0AZHM+4/7g9X9ZSLuXQ3imSTG87aIZn/BC/4HZpe7J6j3xoi8/ism9YaXCROlWS6vYUAY+pXzK4ON3mN1RnqZWjpHQKPpHMbQfAbBnDKrjC6Up35Ca/2b/mE+nfgrIZwB4Megoe1m0H29q909QL4oPa4veXgBGmnq+gE+qlVVsKIPTm542+Xg7lEPUyHFQlZRsybsgBH9LIA438vaQ0tja4Cx6ux/KZ5xfAHIigDjMLkdR+OumoneZZhyNB6HAaHwJKU+rlVVsKIPTW40qd4qKjUpzeomjckX/ViEui0m/3CzA0YUG5zfb8sP5jHMHBUcC2BQHeU7ggs4O/47TOjlGvavScyUxe3uvpWJDxYYySH3Jf8pwER/RfRuVI1ss75Ni8AQEx8VjcMCrIvhYa8b90/b8XiHt3kfyMAAvx8KwxJE1Pd4/mlaUZ6iXVaoNKAA+ZLII27OfUkOr2FAGgdZ0zWoAGw0WsdOclWVN7lUBcu3+bIH8FeCkmFRpvVjhh1vT7t/688uFhtSjQh5G4PmYzKvH05K/5Er+Z9Tboqep6L0XwLsNFvHagqmaPVTFhjJI8VII4G8miwgpH1NDR8cZbazLFcsFCAsAhsWkWssC2zlwQX3NMwMSxw2pJxH4BwJYEZP3Gg5yca7oL5j5JEeo90UHxXBcEfy1Lz4qKjaUwem1+IvhqNCoRo6G2aWe6b3HWmV2jKr1sEvnI4smD07G2sLUYWt6apwDATwQo07U5AzzH8sWy/uoF0bGpwzHxfvUxCo2lMEU8JbxTnXArJXUW2AN09Tuz7JoPYp4HGvt9S3Bb7qGOR+d1yD/Gszn3jhBXq0T52MgfxWjJmgQyMPZYvlc3adkllwHxwEwul/GIlVsqNhQBpPxzzqPwuxOf3FC70S1tBma2/nuXNH7LYULEZ/PJoDINePrnZOWjJOtJh5/dVp6ujLuaUK5NkbNUSOQK3JF/9ZZy/ku9U5DhP4pMHn5GrBp3HPu42poFRvKINJyqPgA/mqyDIb6KcUE2ZJ3iCf+EwCOiVG1SMGF+bRzdouI0QygS0SC1gbnTBJfRRzSm/9HaOE42/aeyLZ7H1IvNcLJhp//QF9cVFRsKIM7CTX8KUXwwezK7rRaenBoXMdh2aL3YyH+DGD3GFWtDJFZhbR7eZSFFhrc74CSQxyyjf5/px8ngvtyJe8H2dWsVa8dHJpWdDcAeL/ZcKX7NVRsKEYIYfz7pEhgn6WWHjjZUvmAuq3+EwKcF6d+JsCrCHFkPu1cX4ny8w3OQgJHAdgQqzhIfEE8//Fse3l/9d5BiFW2czbMfkJBqPs1kjVZVhMkhxbS6iz56wCMNVjMJtd2xs2bLK+pxbef5qV0/ZH+Vym4GEDMrj2XlWRwdKGhpuJHUrMru9MS2LcDaIhZE/oC/HCEON+4Oi096tH9aNvVHC2evw5AncFi1k9IO+NNfwJUBlPRK8kRGyIhRG4xXMzIcuBl1drbz6wVPe/1RvmPUPCN+AkNPAixPxgHoQEAhcm1JctzDgRxb8zs5BC4oIv+0lypvK96dT8GlbI/x7DQAIElKjRUbCgmG4xcYnz+C+vslnvpqLW3jcZ1HNZU8i61LWspgH3iV0OZ5250PppPy0txqtWC6fJKl+98gpQFMWzWPUH5W67du0T3cmw7zUvphiJnmi6HIW5Wa6vYUAwyLu08COA5w115cufu3v+otd+Zpg7v0Lqt/hMkLgLgxqx6AQUX5jPOZ+fNEC+O9lsyXcqFBmcuwfMABDGrXur/tXfuwVFVdxz//u5jk6BUrcaiNiCQ3YBBHZWhiuNz6gMpviqWqsQs4SEoqB2tOo4UbWd8Ta1FjUpDdgFfNcUH+CptcXwrYmulCNkNhRCKFXR8EEKy9/HtH7G2tYqK2d177/4+M/v3Pfs9v/M733PvOecHwWxxvL8ls84pGu1fjtPfmSbg4Dw/ZtPgGusVVTtc6J6NEJLMuneAzPdGzq05sarvj8vHqvj/U7+eA4yccwtFJga0iZ0icn5z3FoSGk3bnFPFx0MA9ghoE58wxZreFJdNOgI+x3ivZX8abhbAd/K6FAJuTyfsy1XxcKFvNsLYaQX4lAKgMkb3SlX7f5lDGvXZ3Axx3LXBNRryd8PwjwqT0QCAdLX9jOf7xxKyPqBN/IFHd9WkTO6iOaTmzs+aAMO9Kt9GA9BPKGFF32yEdMJrz7rtyP/dDV303Nr08IoNqjqQbHNGw8ftAIJ8PPKpnjLrggcGyQdh1blhNb9Ny72fglMD3MzXRHD5rlbHjRoXZruHGjTfAtAvv06D7YMS9hDdHBrCRbJKEEKzIeKTuLsAj+onljW/1GtI1K3jwEmtuYXw8WKAjQYFuHlQ3BoXZqMB9G4cbU5Yp1FwNYCgTirfI/FyMuMsvTDbPbTUFz9CsznvRgMARBrVaIQTfbMRUqa2ch9H3I0oRJ0NcmaqJnZnqWl8Xjv3Ksu514KYCSAW4EH8gUAmzk9YT0atDxoy7liCiwjsFeBmOgDupm39LD1YPiy1cTIp41xH4IYCPKrL86yBC4fL+zoDqNlQCkh9q9skwoYCPKoHwtGpeKwkih6NX83YbrYzXSDXAQh0oS4Cb1G8sxfEy9dFNs57LwB7BAGqlPsFvCfkHGubPS+op3/63Ay25kb5Ii+iICexZF4qYU3TzK9mQyn0QG/rGeH7xlsF6sfNHq1RC2vkH1E2Gf0tbwIFswGG4NU4H3R32FMWHSrbI28AO1ix2w6vUcD6EPTLRgK3wbbvTQ+W7qj2ydS3uZ9jOa8BUlUQVT3/kPTwslWa+dVsKEUg2eosh+CEAgXLGz1inRi147AzsyzbBqdBiKsLlTi/IT0gryjFT1v1mdylArkFAf6s9Z/Zke0Q3Njp2KmWWslFymis4x6O5y4HUKhbVv+YStgnacZXs6EUK/m2umeK8NGC5U/g+X6ONbaxVjpDr916lkvOmQyRqxCsqqw7o5XghHQi9mapxvyFbbkjDF8eBBCSCsXcCMFNu8NujkK9lU/u03gSwDEFnKrGpRLWE5rx1WwoxVs9SbLNXQFiZAGf+prnWWPDulGrrpUHmOJOBzAVQGWIOntBhWNfEgWj1ycTnjiNELkgRM3eQuBew7fuaR4mm8OoezLLSsB9qtD5JhW3joIINeGr2VCKuULPOsdLwQtayTpfvDMWxMtWhyZRtjmjQc4C5WwE72rxnbFNRKY3x637Ndo/Yzpa3ToK70KeC3/1MQ7A31EwNx2PvRqaPLOm52CY5uMFuI78M+spHJuusV/QaFezoQRhIs04SwCMK/Bjt4O8LFUTawpsglzPPZFzxoshUwu8GuurAfqGGN6E+dXlbRrln0/dmu6EaZoPATgsbG0nsMIQzvMte3GQj80mM7lpgNyGQtyl8d/xL3isOW6fpVGuZkMJSjLI9hwEGn8FUPBqrQSWmYZ3cVAmxPGrGds95o0hOVGAsQDCWLWTIvjVtpx1TdQ2F+aDmVmWddK9GcCskOa1bgGWQuS+bTnzmaD0eUNbd7Xvm40AirE50xXfG9E8rLxVI1zNhhKo1Yd7D8BinUPPQWSe55s3FeN47PgOVvTv8o6nYBzAcxHw+zF2bjPY7kMaFtTYf9Ko/npMyjonk2wKyamiL+J9QB6mwSXby6znWqpkR6EbMDnL77rwrhZyCop28kfuTiWsGRrVajaUgFG/ngPEcTMA+hexGTmQD8OQplS19Xw+N3XVrelOGKYxxqCcSsFxKMRtqnn3GTLfMcyfaLXdXWfqOu6R87zbw3Enx5eyQ4jnKHyapv90emh5Np/BV9/mHic+GyByLop7vPhj17Dii6pli0a0mg0liIYjm5shlLsCMnV2CI2lNLDM9s2X5tXIe7s8gbRyn5zpjhQfI9Fbn2QkgP0j1HWbSZmSrrGe0ijuq7HgjhOf8yAYEKU4AfE6BCtpYKXvWK9/k1NhvadLvNEgTgE4DgE5Ai5gsjkRS2sUq9lQArw0Tmbd5QCOD2Db2iGympCNQm4BuBUwttLoLbZl+KiA+OUQ9PMpgwBUAagSYmDEJoz/lQW8P1dmzwx7AbUgUreGe1umcychE6IbP3gHQMe/f4awHUQXafTQQBcAiA8D8CsBqaTIvgIOBFkLkUEB/D+L0wn7HI1eNRtKwPmk3PObCNdxwFJki1Auaq6xHlUp8v6WY7yQjQD2UTUCzWbPsw7RYmvRQ0vMR5AF8fJ1oExWJYK7GBVykU2rVo1GYUjHrZaeMisBYC6CW7a+5McFKVPUaEQTfbMRYZIZtxlgUpUI0IATZOhhemqYvVzVKA71rc4xIrgbQK2qESjmphL2pSpDNNE3GxHG3t28BMBfVIlA0CWCa6yPrBFqNIpLusZ+odOxDidxLYAdqkgglr0rOyusq1WIKHexEmkmreX+NNwVAA5QNYrGU6bvXtI0rGK9ShGw8ZHpHkIx7wQxRtUoDgTescQa1RSXTaqGmg0lxDS05kb5Is+iwFcNK9wgMK5oTliLVYtgU591x4vv3xrE0xkRZ7tv8LgF1bE3VIpoo59RSoD5NbEVBM4E0KNqFIROIa6nbQ9XoxEO0nGrpdO1EwQvA/CRKlIQcjRwjhqN0kDfbJTS6q3VPVOELShC/ZQSwQWk2bTM2U1D5F2VI5zUreHepunOBjBDx0re8Cjy43TcalEp1Gwo0TQcE0S4EOEqsR4GlpL+T9M1ZWtVimjwSXHDWwGcpmr0KTkRmdgctx5WKdRsKBGmIeOO9cEWRKCWSLEhsEJ8XKMnTCJs0DPOSQZwI4EjVI1vTJdQzmmusZ5WKdRsKKWQQHvvGngEeqPirvKqUG7QpFkqrpKSzHpjAc5Gb20e5euzBQbOSlXbL6sUajaUEiLZxir47mMADlc1vjKvUOTGdNxaqlKUJpMyzvcJ/BzAkarGV55pVtF1T08Pr9igYqjZUEoxca5lfxjufALjVY2dDBTBSz5xfTph/0HVUACgvs05VXzMBnCUqrGzwcPfVuTsyY210qliqNlQSt10ZHMNpPwawG6qxqd4AB6HYG4qbj+nciifO3banBNAzCIxDoCpinxKJ8BZqUQspVIoajaUT6lb050wTbMJwDElPig+8IEm07Xumn+QtGtkKF+FyWt3DPZM62IQDQD2LGUtCDwP05ucHlqe1chQ1Gwon5MlKJMy3kQKf4kS2zwqgoxPNno77KZFh8p2DQZlV6hfz3Ij551L4ZUARpTY3/+Q4JwD4/Ydc0S0uq6iZkPZOcksK4XedQSnAYhF+K9+DMhiChemq63nIELtfaWvjHuy1T0BBusAORtA/wj/2xyAeyDWL1Jx2aqdr6jZUL7eKm3NjgPFMq8H5TxE5zZFB8DvQbmvs5+5pKVKtPKnklembmY/p9M7A+AFAE6O1ljiA/S8OXrSRFGzoXxj6tZxoOW7l5KYEtIVmg/gNYIPitgP6epLKRYT27iv5TsTADkPvXd2hLFG1UcAfgPDmpuqlg7tVUXNhtKnnJ/lt2zf+ZFhyIUkjg54c7eAXEYxno7RXDavRt7THlSCRDLLSsA7BfTHAHIygr1PigBeEmEanv1w8zDZpj2oqNlQ8k5DW3e1R/OH4uN0CI4MwAqtC8CfBVjmk88cmLDf0E1qSliYQxodGWekZ8gY8XEyBIeh+CUFPBG8SmKJL97iBfHyddpTipoNpWhMbOO+puedKAaOBnkMenfh5/POgRwEb5GyEuK/7ntcOeSd2NtzThBXe0OJhPl4ltaGA5wRQoyEGCMFHEngEOS3iKIHYJVAXiDxEgxzuX5yVNRsKIFlfAcr+m93amngYECGQTgAkEoQAwDsC6ASOz/l4gH4pwg2gOwgZBPADhFjg8Dv+Dhnr26plZwqrZQSM7Ms64JzkA9jIOgPAqQKwir4UgXBIAD7YedvGHMAtgJ4F4J3AW4VyjsA13oGVolpr04Plm5VWulr/gVMMJylFfGXuwAAACV0RVh0ZGF0ZTpjcmVhdGUAMjAyNC0wNy0xOFQwMToyMDozNyswMDowMCBkc5wAAAAldEVYdGRhdGU6bW9kaWZ5ADIwMjQtMDctMThUMDE6MjA6MzcrMDA6MDBROcsgAAAAAElFTkSuQmCC;" parent="1" vertex="1">
                    <mxGeometry x="180" y="15" width="56.14" height="50" as="geometry"/>
                </mxCell>
                <mxCell id="RXpoS-Nx3WBIdKvjISsR-8" value="Login" style="text;html=1;strokeColor=none;fillColor=none;align=center;verticalAlign=middle;whiteSpace=wrap;rounded=0;" parent="1" vertex="1">
                    <mxGeometry x="176" y="65" width="60" height="30" as="geometry"/>
                </mxCell>
                <mxCell id="RXpoS-Nx3WBIdKvjISsR-15" value="Firebase" style="sketch=0;dashed=0;connectable=0;html=1;fillColor=#5184F3;strokeColor=none;shape=mxgraph.gcp2.firebase;part=1;labelPosition=right;verticalLabelPosition=middle;align=left;verticalAlign=middle;spacingLeft=5;fontColor=#999999;fontSize=12;" parent="1" vertex="1">
                    <mxGeometry x="310" y="22.5" width="25.2" height="35" as="geometry"/>
                </mxCell>
                <mxCell id="RXpoS-Nx3WBIdKvjISsR-16" value="Auth" style="text;html=1;strokeColor=none;fillColor=none;align=center;verticalAlign=middle;whiteSpace=wrap;rounded=0;" parent="1" vertex="1">
                    <mxGeometry x="320" y="65" width="60" height="30" as="geometry"/>
                </mxCell>
                <mxCell id="RXpoS-Nx3WBIdKvjISsR-20" value="" style="endArrow=none;dashed=1;html=1;entryX=0.5;entryY=1;entryDx=0;entryDy=0;" parent="1" target="RXpoS-Nx3WBIdKvjISsR-16" edge="1">
                    <mxGeometry width="50" height="50" relative="1" as="geometry">
                        <mxPoint x="350" y="520" as="sourcePoint"/>
                        <mxPoint x="370" y="240" as="targetPoint"/>
                    </mxGeometry>
                </mxCell>
                <mxCell id="RXpoS-Nx3WBIdKvjISsR-21" value="" style="endArrow=none;dashed=1;html=1;entryX=0.5;entryY=1;entryDx=0;entryDy=0;startArrow=none;" parent="1" source="RXpoS-Nx3WBIdKvjISsR-22" target="RXpoS-Nx3WBIdKvjISsR-8" edge="1">
                    <mxGeometry width="50" height="50" relative="1" as="geometry">
                        <mxPoint x="206" y="820" as="sourcePoint"/>
                        <mxPoint x="206.17" y="160" as="targetPoint"/>
                    </mxGeometry>
                </mxCell>
                <mxCell id="RXpoS-Nx3WBIdKvjISsR-24" value="loginFormData()" style="html=1;verticalAlign=bottom;startArrow=oval;endArrow=block;startSize=8;exitX=1.16;exitY=0.084;exitDx=0;exitDy=0;exitPerimeter=0;" parent="1" source="RXpoS-Nx3WBIdKvjISsR-3" target="RXpoS-Nx3WBIdKvjISsR-22" edge="1">
                    <mxGeometry relative="1" as="geometry">
                        <mxPoint x="140" y="110" as="sourcePoint"/>
                    </mxGeometry>
                </mxCell>
                <mxCell id="RXpoS-Nx3WBIdKvjISsR-25" value="" style="endArrow=none;dashed=1;html=1;entryX=0.5;entryY=1;entryDx=0;entryDy=0;" parent="1" target="RXpoS-Nx3WBIdKvjISsR-22" edge="1">
                    <mxGeometry width="50" height="50" relative="1" as="geometry">
                        <mxPoint x="206" y="520" as="sourcePoint"/>
                        <mxPoint x="206.00000000000023" y="95" as="targetPoint"/>
                    </mxGeometry>
                </mxCell>
                <mxCell id="RXpoS-Nx3WBIdKvjISsR-22" value="" style="html=1;points=[];perimeter=orthogonalPerimeter;fillColor=#008a00;fontColor=#ffffff;strokeColor=#005700;" parent="1" vertex="1">
                    <mxGeometry x="201.07" y="123" width="10" height="387" as="geometry"/>
                </mxCell>
                <mxCell id="RXpoS-Nx3WBIdKvjISsR-26" value="" style="html=1;points=[];perimeter=orthogonalPerimeter;fillColor=#e3c800;fontColor=#000000;strokeColor=#B09500;" parent="1" vertex="1">
                    <mxGeometry x="345" y="150" width="10" height="80" as="geometry"/>
                </mxCell>
                <mxCell id="RXpoS-Nx3WBIdKvjISsR-27" value="auth()" style="html=1;verticalAlign=bottom;startArrow=oval;endArrow=block;startSize=8;" parent="1" target="RXpoS-Nx3WBIdKvjISsR-26" edge="1">
                    <mxGeometry relative="1" as="geometry">
                        <mxPoint x="211.07" y="150" as="sourcePoint"/>
                    </mxGeometry>
                </mxCell>
                <mxCell id="RXpoS-Nx3WBIdKvjISsR-31" value="auth.sucess" style="html=1;verticalAlign=bottom;endArrow=open;dashed=1;endSize=8;exitX=0;exitY=0.95;" parent="1" target="RXpoS-Nx3WBIdKvjISsR-22" edge="1">
                    <mxGeometry relative="1" as="geometry">
                        <mxPoint x="275" y="220" as="targetPoint"/>
                        <mxPoint x="345" y="220" as="sourcePoint"/>
                    </mxGeometry>
                </mxCell>
                <mxCell id="Cdl3X6QacqJxsTN3LY4Q-1" value="" style="outlineConnect=0;dashed=0;verticalLabelPosition=bottom;verticalAlign=top;align=center;html=1;shape=mxgraph.aws3.android;fillColor=#205E00;gradientColor=none;" vertex="1" parent="1">
                    <mxGeometry x="480" y="15" width="36.75" height="42" as="geometry"/>
                </mxCell>
                <mxCell id="Cdl3X6QacqJxsTN3LY4Q-2" value="Backend" style="text;html=1;strokeColor=none;fillColor=none;align=center;verticalAlign=middle;whiteSpace=wrap;rounded=0;" vertex="1" parent="1">
                    <mxGeometry x="468.38" y="65" width="60" height="30" as="geometry"/>
                </mxCell>
                <mxCell id="Cdl3X6QacqJxsTN3LY4Q-3" value="" style="endArrow=none;dashed=1;html=1;entryX=0.5;entryY=1;entryDx=0;entryDy=0;startArrow=none;" edge="1" parent="1" source="Cdl3X6QacqJxsTN3LY4Q-4">
                    <mxGeometry width="50" height="50" relative="1" as="geometry">
                        <mxPoint x="497.9599999999998" y="400" as="sourcePoint"/>
                        <mxPoint x="497.96000000000026" y="95" as="targetPoint"/>
                    </mxGeometry>
                </mxCell>
                <mxCell id="Cdl3X6QacqJxsTN3LY4Q-5" value="getUser()" style="html=1;verticalAlign=bottom;startArrow=oval;endArrow=block;startSize=8;" edge="1" target="Cdl3X6QacqJxsTN3LY4Q-4" parent="1">
                    <mxGeometry relative="1" as="geometry">
                        <mxPoint x="211.07" y="270" as="sourcePoint"/>
                    </mxGeometry>
                </mxCell>
                <mxCell id="Cdl3X6QacqJxsTN3LY4Q-6" value="" style="endArrow=none;dashed=1;html=1;entryX=0.5;entryY=1;entryDx=0;entryDy=0;" edge="1" parent="1" target="Cdl3X6QacqJxsTN3LY4Q-4">
                    <mxGeometry width="50" height="50" relative="1" as="geometry">
                        <mxPoint x="498" y="520" as="sourcePoint"/>
                        <mxPoint x="497.96000000000026" y="95" as="targetPoint"/>
                    </mxGeometry>
                </mxCell>
                <mxCell id="Cdl3X6QacqJxsTN3LY4Q-4" value="" style="html=1;points=[];perimeter=orthogonalPerimeter;fillColor=#60a917;fontColor=#ffffff;strokeColor=#2D7600;" vertex="1" parent="1">
                    <mxGeometry x="493.38" y="270" width="10" height="110" as="geometry"/>
                </mxCell>
                <mxCell id="Cdl3X6QacqJxsTN3LY4Q-7" value="Firebase" style="sketch=0;dashed=0;connectable=0;html=1;fillColor=#5184F3;strokeColor=none;shape=mxgraph.gcp2.firebase;part=1;labelPosition=right;verticalLabelPosition=middle;align=left;verticalAlign=middle;spacingLeft=5;fontColor=#999999;fontSize=12;" vertex="1" parent="1">
                    <mxGeometry x="640" y="18.5" width="25.2" height="35" as="geometry"/>
                </mxCell>
                <mxCell id="Cdl3X6QacqJxsTN3LY4Q-8" value="Database" style="text;html=1;strokeColor=none;fillColor=none;align=center;verticalAlign=middle;whiteSpace=wrap;rounded=0;" vertex="1" parent="1">
                    <mxGeometry x="650" y="65" width="60" height="30" as="geometry"/>
                </mxCell>
                <mxCell id="Cdl3X6QacqJxsTN3LY4Q-9" value="" style="endArrow=none;dashed=1;html=1;entryX=0.5;entryY=1;entryDx=0;entryDy=0;startArrow=none;" edge="1" parent="1" source="Cdl3X6QacqJxsTN3LY4Q-10">
                    <mxGeometry width="50" height="50" relative="1" as="geometry">
                        <mxPoint x="680" y="400" as="sourcePoint"/>
                        <mxPoint x="679.7100000000003" y="95" as="targetPoint"/>
                    </mxGeometry>
                </mxCell>
                <mxCell id="Cdl3X6QacqJxsTN3LY4Q-11" value="getUser()" style="html=1;verticalAlign=bottom;endArrow=block;entryX=0;entryY=0;" edge="1" target="Cdl3X6QacqJxsTN3LY4Q-10" parent="1">
                    <mxGeometry relative="1" as="geometry">
                        <mxPoint x="503.38" y="280" as="sourcePoint"/>
                    </mxGeometry>
                </mxCell>
                <mxCell id="Cdl3X6QacqJxsTN3LY4Q-12" value="user()" style="html=1;verticalAlign=bottom;endArrow=open;dashed=1;endSize=8;exitX=0;exitY=0.95;" edge="1" source="Cdl3X6QacqJxsTN3LY4Q-10" parent="1">
                    <mxGeometry relative="1" as="geometry">
                        <mxPoint x="503.38" y="356" as="targetPoint"/>
                    </mxGeometry>
                </mxCell>
                <mxCell id="Cdl3X6QacqJxsTN3LY4Q-13" value="" style="endArrow=none;dashed=1;html=1;entryX=0.5;entryY=1;entryDx=0;entryDy=0;startArrow=none;" edge="1" parent="1" target="Cdl3X6QacqJxsTN3LY4Q-10">
                    <mxGeometry width="50" height="50" relative="1" as="geometry">
                        <mxPoint x="680" y="520" as="sourcePoint"/>
                        <mxPoint x="679.7100000000003" y="95" as="targetPoint"/>
                    </mxGeometry>
                </mxCell>
                <mxCell id="Cdl3X6QacqJxsTN3LY4Q-10" value="" style="html=1;points=[];perimeter=orthogonalPerimeter;fillColor=#f0a30a;fontColor=#000000;strokeColor=#BD7000;" vertex="1" parent="1">
                    <mxGeometry x="675" y="280" width="10" height="80" as="geometry"/>
                </mxCell>
                <mxCell id="Cdl3X6QacqJxsTN3LY4Q-14" value="user()" style="html=1;verticalAlign=bottom;endArrow=open;dashed=1;endSize=8;entryX=1.136;entryY=0.664;entryDx=0;entryDy=0;entryPerimeter=0;" edge="1" parent="1" target="RXpoS-Nx3WBIdKvjISsR-22">
                    <mxGeometry relative="1" as="geometry">
                        <mxPoint x="493.38" y="380" as="sourcePoint"/>
                        <mxPoint x="413.38" y="380" as="targetPoint"/>
                    </mxGeometry>
                </mxCell>
                <mxCell id="Cdl3X6QacqJxsTN3LY4Q-16" value="redirect to dashboard" style="edgeStyle=orthogonalEdgeStyle;html=1;align=left;spacingLeft=2;endArrow=block;rounded=0;entryX=1;entryY=0;" edge="1" parent="1">
                    <mxGeometry relative="1" as="geometry">
                        <mxPoint x="211.07" y="440" as="sourcePoint"/>
                        <Array as="points">
                            <mxPoint x="241.07" y="440"/>
                        </Array>
                        <mxPoint x="216.07" y="460" as="targetPoint"/>
                    </mxGeometry>
                </mxCell>
                <mxCell id="Cdl3X6QacqJxsTN3LY4Q-17" value="logged in" style="html=1;verticalAlign=bottom;endArrow=open;dashed=1;endSize=8;entryX=1.136;entryY=0.664;entryDx=0;entryDy=0;entryPerimeter=0;" edge="1" parent="1">
                    <mxGeometry relative="1" as="geometry">
                        <mxPoint x="200" y="500" as="sourcePoint"/>
                        <mxPoint x="5.684341886080802e-14" y="499.99799999999993" as="targetPoint"/>
                    </mxGeometry>
                </mxCell>
            </root>
        </mxGraphModel>
    </diagram>
    <diagram id="o3WYHHG8yE0diApQ_QW_" name="SequenceSignup">
        <mxGraphModel dx="1175" dy="813" grid="1" gridSize="10" guides="1" tooltips="1" connect="1" arrows="1" fold="1" page="1" pageScale="1" pageWidth="850" pageHeight="1100" math="0" shadow="0">
            <root>
                <mxCell id="0"/>
                <mxCell id="1" parent="0"/>
            </root>
        </mxGraphModel>
    </diagram>
</mxfile>